<svg width="1425" height="93" viewBox="0 0 1425 93" fill="none" xmlns="http://www.w3.org/2000/svg">
<g clip-path="url(#clip0_2_1246)">
<rect width="200" height="94" transform="translate(0 0.59375)" fill="url(#paint0_linear_2_1246)"/>
<rect width="200" height="94" transform="translate(1225 0.59375)" fill="url(#paint1_linear_2_1246)"/>
<g opacity="0.5">
<path d="M1394.58 72.5938C1394.58 61.8242 1403.31 53.0938 1414.08 53.0938H1526.08C1536.85 53.0938 1545.58 61.8242 1545.58 72.5938C1545.58 83.3633 1536.85 92.0938 1526.08 92.0938H1414.08C1403.31 92.0938 1394.58 83.3633 1394.58 72.5938Z" stroke="#BBBBBB"/>
<rect width="110" height="10" transform="translate(1415.08 67.5938)" fill="#EEEEEE"/>
</g>
<g opacity="0.5">
<path d="M1230.58 72.5938C1230.58 61.8242 1239.31 53.0938 1250.08 53.0938H1362.08C1372.85 53.0938 1381.58 61.8242 1381.58 72.5938C1381.58 83.3633 1372.85 92.0938 1362.08 92.0938H1250.08C1239.31 92.0938 1230.58 83.3633 1230.58 72.5938Z" stroke="#BBBBBB"/>
<rect width="110" height="10" transform="translate(1251.08 67.5938)" fill="#EEEEEE"/>
</g>
<g opacity="0.5">
<path d="M1066.58 72.5938C1066.58 61.8242 1075.31 53.0938 1086.08 53.0938H1198.08C1208.85 53.0938 1217.58 61.8242 1217.58 72.5938C1217.58 83.3633 1208.85 92.0938 1198.08 92.0938H1086.08C1075.31 92.0938 1066.58 83.3633 1066.58 72.5938Z" stroke="#BBBBBB"/>
<rect width="110" height="10" transform="translate(1087.08 67.5938)" fill="#EEEEEE"/>
</g>
<path d="M879.312 72.5938C879.312 61.8242 888.043 53.0938 898.812 53.0938H1034.08C1044.85 53.0938 1053.58 61.8242 1053.58 72.5938C1053.58 83.3633 1044.85 92.0938 1034.08 92.0938H898.812C888.043 92.0938 879.312 83.3633 879.312 72.5938Z" stroke="#BBBBBB"/>
<path d="M928.477 80.5938V66.8483H930.141V79.1172H936.531V80.5938H928.477ZM943.082 80.8085C942.151 80.8085 941.334 80.587 940.632 80.1441C939.934 79.7011 939.388 79.0814 938.994 78.2849C938.605 77.4885 938.41 76.5578 938.41 75.4929C938.41 74.419 938.605 73.4816 938.994 72.6807C939.388 71.8798 939.934 71.2578 940.632 70.8149C941.334 70.3719 942.151 70.1504 943.082 70.1504C944.012 70.1504 944.827 70.3719 945.525 70.8149C946.227 71.2578 946.773 71.8798 947.162 72.6807C947.556 73.4816 947.753 74.419 947.753 75.4929C947.753 76.5578 947.556 77.4885 947.162 78.2849C946.773 79.0814 946.227 79.7011 945.525 80.1441C944.827 80.587 944.012 80.8085 943.082 80.8085ZM943.082 79.3857C943.788 79.3857 944.37 79.2044 944.827 78.842C945.283 78.4796 945.621 78.0031 945.84 77.4124C946.059 76.8218 946.169 76.182 946.169 75.4929C946.169 74.8038 946.059 74.1618 945.84 73.5667C945.621 72.9716 945.283 72.4906 944.827 72.1237C944.37 71.7567 943.788 71.5733 943.082 71.5733C942.375 71.5733 941.793 71.7567 941.337 72.1237C940.88 72.4906 940.542 72.9716 940.323 73.5667C940.104 74.1618 939.994 74.8038 939.994 75.4929C939.994 76.182 940.104 76.8218 940.323 77.4124C940.542 78.0031 940.88 78.4796 941.337 78.842C941.793 79.2044 942.375 79.3857 943.082 79.3857ZM952.156 80.5938L949.015 70.2847H950.679L952.907 78.1776H953.015L955.216 70.2847H956.908L959.082 78.1507H959.189L961.418 70.2847H963.082L959.941 80.5938H958.384L956.129 72.674H955.968L953.713 80.5938H952.156ZM972.076 66.8483V80.5938H970.492V66.8483H972.076ZM978.011 80.8354C977.357 80.8354 976.764 80.7123 976.232 80.4662C975.7 80.2157 975.277 79.8555 974.964 79.3857C974.65 78.9114 974.494 78.3386 974.494 77.6675C974.494 77.0768 974.61 76.5981 974.843 76.2312C975.075 75.8598 975.386 75.569 975.776 75.3587C976.165 75.1484 976.594 74.9918 977.064 74.8888C977.539 74.7815 978.015 74.6964 978.494 74.6338C979.12 74.5533 979.628 74.4929 980.017 74.4526C980.411 74.4078 980.698 74.334 980.876 74.2311C981.06 74.1282 981.152 73.9492 981.152 73.6942V73.6405C981.152 72.9783 980.97 72.4637 980.608 72.0968C980.25 71.7299 979.706 71.5464 978.977 71.5464C978.221 71.5464 977.628 71.712 977.199 72.0431C976.769 72.3742 976.467 72.7277 976.292 73.1036L974.789 72.5666C975.058 71.9402 975.415 71.4525 975.863 71.1035C976.315 70.75 976.807 70.5039 977.339 70.3652C977.876 70.222 978.404 70.1504 978.923 70.1504C979.255 70.1504 979.635 70.1907 980.064 70.2712C980.498 70.3473 980.917 70.5061 981.319 70.7478C981.727 70.9894 982.064 71.354 982.333 71.8418C982.601 72.3295 982.736 72.9827 982.736 73.8016V80.5938H981.152V79.1977H981.071C980.964 79.4214 980.785 79.6608 980.534 79.9159C980.284 80.1709 979.95 80.3879 979.534 80.5669C979.118 80.7459 978.61 80.8354 978.011 80.8354ZM978.252 79.4125C978.879 79.4125 979.407 79.2895 979.836 79.0434C980.27 78.7973 980.597 78.4796 980.816 78.0903C981.04 77.701 981.152 77.2916 981.152 76.8621V75.4124C981.085 75.4929 980.937 75.5667 980.709 75.6338C980.485 75.6965 980.225 75.7524 979.93 75.8016C979.639 75.8464 979.355 75.8866 979.078 75.9224C978.805 75.9538 978.583 75.9806 978.413 76.003C978.002 76.0567 977.617 76.1439 977.259 76.2647C976.905 76.3811 976.619 76.5578 976.4 76.795C976.185 77.0276 976.078 77.3453 976.078 77.748C976.078 78.2984 976.281 78.7145 976.688 78.9964C977.1 79.2738 977.621 79.4125 978.252 79.4125ZM990.11 70.2847V71.627H984.768V70.2847H990.11ZM986.325 67.8148H987.909V77.6406C987.909 78.0881 987.974 78.4237 988.103 78.6474C988.237 78.8666 988.408 79.0143 988.613 79.0903C988.824 79.1619 989.045 79.1977 989.278 79.1977C989.452 79.1977 989.595 79.1888 989.707 79.1709C989.819 79.1485 989.909 79.1306 989.976 79.1172L990.298 80.5401C990.191 80.5803 990.041 80.6206 989.848 80.6609C989.656 80.7056 989.412 80.728 989.117 80.728C988.669 80.728 988.231 80.6318 987.801 80.4394C987.376 80.247 987.023 79.9539 986.741 79.5602C986.463 79.1664 986.325 78.6697 986.325 78.0702V67.8148ZM996.704 80.8085C995.711 80.8085 994.854 80.5893 994.134 80.1508C993.418 79.7078 992.865 79.0903 992.476 78.2984C992.091 77.5019 991.899 76.5757 991.899 75.5197C991.899 74.4638 992.091 73.5331 992.476 72.7277C992.865 71.9178 993.407 71.2869 994.1 70.835C994.798 70.3786 995.612 70.1504 996.543 70.1504C997.08 70.1504 997.61 70.2399 998.134 70.4189C998.657 70.5979 999.134 70.8887 999.563 71.2914C999.993 71.6896 1000.34 72.2176 1000.59 72.8754C1000.85 73.5331 1000.97 74.343 1000.97 75.305V75.9761H993.026V74.607H999.362C999.362 74.0253 999.246 73.5062 999.013 73.0499C998.785 72.5935 998.458 72.2333 998.033 71.9693C997.613 71.7053 997.116 71.5733 996.543 71.5733C995.912 71.5733 995.366 71.7299 994.906 72.0431C994.449 72.3518 994.098 72.7545 993.852 73.2512C993.606 73.7479 993.483 74.2803 993.483 74.8486V75.7614C993.483 76.5399 993.617 77.1999 993.885 77.7413C994.158 78.2782 994.536 78.6876 995.02 78.9695C995.503 79.2469 996.064 79.3857 996.704 79.3857C997.12 79.3857 997.496 79.3275 997.832 79.2112C998.172 79.0903 998.465 78.9114 998.711 78.6742C998.957 78.4326 999.147 78.1328 999.282 77.7749L1000.81 78.2044C1000.65 78.7234 1000.38 79.1798 1000 79.5736C999.619 79.9629 999.15 80.2671 998.59 80.4864C998.031 80.7011 997.402 80.8085 996.704 80.8085ZM1004.97 74.3922V80.5938H1003.38V70.2847H1004.91V71.8955H1005.05C1005.29 71.3719 1005.66 70.9513 1006.15 70.6337C1006.64 70.3115 1007.28 70.1504 1008.05 70.1504C1008.75 70.1504 1009.36 70.2936 1009.89 70.58C1010.41 70.8619 1010.82 71.2914 1011.11 71.8686C1011.4 72.4413 1011.54 73.1662 1011.54 74.0432V80.5938H1009.96V74.1506C1009.96 73.3407 1009.75 72.7098 1009.33 72.2579C1008.91 71.8015 1008.33 71.5733 1007.6 71.5733C1007.09 71.5733 1006.64 71.6829 1006.24 71.9022C1005.85 72.1214 1005.54 72.4413 1005.31 72.8619C1005.08 73.2825 1004.97 73.7926 1004.97 74.3922ZM1018.63 80.8085C1017.66 80.8085 1016.83 80.5803 1016.13 80.1239C1015.43 79.6675 1014.89 79.0389 1014.52 78.238C1014.14 77.437 1013.95 76.522 1013.95 75.4929C1013.95 74.4459 1014.15 73.5219 1014.53 72.721C1014.92 71.9156 1015.46 71.2869 1016.16 70.835C1016.85 70.3786 1017.67 70.1504 1018.6 70.1504C1019.32 70.1504 1019.98 70.2847 1020.56 70.5531C1021.14 70.8216 1021.62 71.1974 1021.99 71.6807C1022.36 72.1639 1022.59 72.7277 1022.68 73.372H1021.1C1020.98 72.9022 1020.71 72.4861 1020.29 72.1237C1019.88 71.7567 1019.32 71.5733 1018.63 71.5733C1018.01 71.5733 1017.47 71.7344 1017 72.0565C1016.54 72.3742 1016.18 72.8239 1015.92 73.4056C1015.67 73.9828 1015.54 74.6607 1015.54 75.4392C1015.54 76.2357 1015.66 76.9292 1015.91 77.5198C1016.17 78.1104 1016.53 78.5691 1016.99 78.8957C1017.45 79.2223 1018 79.3857 1018.63 79.3857C1019.04 79.3857 1019.41 79.3141 1019.75 79.1709C1020.08 79.0277 1020.37 78.8219 1020.6 78.5534C1020.83 78.2849 1021 77.9628 1021.1 77.5869H1022.68C1022.59 78.1955 1022.37 78.7436 1022.02 79.2313C1021.67 79.7145 1021.2 80.0993 1020.63 80.3857C1020.05 80.6676 1019.39 80.8085 1018.63 80.8085ZM1026.02 84.4597C1025.75 84.4597 1025.51 84.4373 1025.3 84.3925C1025.09 84.3523 1024.94 84.312 1024.86 84.2717L1025.26 82.8757C1025.65 82.9741 1025.99 83.0099 1026.28 82.9831C1026.58 82.9562 1026.84 82.8243 1027.07 82.5871C1027.3 82.3544 1027.51 81.9763 1027.71 81.4528L1028 80.6474L1024.19 70.2847H1025.91L1028.75 78.4997H1028.86L1031.71 70.2847H1033.43L1029.05 82.0972C1028.85 82.6296 1028.61 83.0703 1028.32 83.4194C1028.03 83.7728 1027.69 84.0346 1027.3 84.2046C1026.92 84.3746 1026.49 84.4597 1026.02 84.4597Z" fill="black"/>
<g clip-path="url(#clip1_2_1246)">
<path d="M919.812 60.5938H895.812V84.5938H919.812V60.5938Z" fill="#EBEBEB"/>
<path d="M904.312 81.5938L905.188 75.6438H900.812L908.688 64.5938H910.438L909.562 71.3938H914.812L906.062 81.5938H904.312Z" fill="#1C1B1F"/>
</g>
<path d="M645.641 72.5938C645.641 61.8242 654.371 53.0938 665.141 53.0938H846.821C857.59 53.0938 866.321 61.8242 866.321 72.5938C866.321 83.3633 857.59 92.0938 846.821 92.0938H665.141C654.371 92.0938 645.641 83.3633 645.641 72.5938Z" stroke="#BBBBBB"/>
<path d="M698.725 69.55H697.061C696.962 69.0712 696.79 68.6506 696.544 68.2882C696.302 67.9258 696.007 67.6215 695.658 67.3754C695.314 67.1249 694.931 66.9369 694.51 66.8116C694.09 66.6864 693.651 66.6237 693.195 66.6237C692.363 66.6237 691.609 66.834 690.933 67.2546C690.262 67.6752 689.727 68.2949 689.329 69.1137C688.935 69.9326 688.738 70.9371 688.738 72.1273C688.738 73.3175 688.935 74.322 689.329 75.1408C689.727 75.9596 690.262 76.5793 690.933 76.9999C691.609 77.4205 692.363 77.6308 693.195 77.6308C693.651 77.6308 694.09 77.5682 694.51 77.4429C694.931 77.3176 695.314 77.1319 695.658 76.8858C696.007 76.6353 696.302 76.3288 696.544 75.9663C696.79 75.5994 696.962 75.1788 697.061 74.7045H698.725C698.6 75.407 698.372 76.0357 698.041 76.5905C697.71 77.1453 697.298 77.6174 696.806 78.0067C696.314 78.3915 695.761 78.6846 695.148 78.8859C694.539 79.0873 693.888 79.1879 693.195 79.1879C692.023 79.1879 690.98 78.9016 690.067 78.3288C689.154 77.7561 688.436 76.9418 687.913 75.8858C687.389 74.8298 687.128 73.577 687.128 72.1273C687.128 70.6776 687.389 69.4247 687.913 68.3688C688.436 67.3128 689.154 66.4984 690.067 65.9257C690.98 65.353 692.023 65.0666 693.195 65.0666C693.888 65.0666 694.539 65.1673 695.148 65.3686C695.761 65.57 696.314 65.8653 696.806 66.2546C697.298 66.6394 697.71 67.1092 698.041 67.664C698.372 68.2144 698.6 68.843 698.725 69.55ZM702.784 65.2545V79H701.2V65.2545H702.784ZM708.719 79.2416C708.066 79.2416 707.473 79.1186 706.94 78.8725C706.408 78.6219 705.985 78.2617 705.672 77.7919C705.359 77.3176 705.202 76.7449 705.202 76.0737C705.202 75.4831 705.318 75.0043 705.551 74.6374C705.784 74.2661 706.095 73.9752 706.484 73.7649C706.873 73.5546 707.303 73.398 707.773 73.2951C708.247 73.1877 708.723 73.1027 709.202 73.0401C709.829 72.9595 710.336 72.8991 710.726 72.8588C711.119 72.8141 711.406 72.7403 711.585 72.6374C711.768 72.5344 711.86 72.3555 711.86 72.1004V72.0467C711.86 71.3845 711.679 70.87 711.316 70.5031C710.958 70.1362 710.415 69.9527 709.685 69.9527C708.929 69.9527 708.336 70.1183 707.907 70.4494C707.477 70.7805 707.175 71.1339 707.001 71.5098L705.497 70.9729C705.766 70.3464 706.124 69.8587 706.571 69.5097C707.023 69.1562 707.515 68.9102 708.048 68.7714C708.585 68.6283 709.113 68.5567 709.632 68.5567C709.963 68.5567 710.343 68.5969 710.773 68.6775C711.207 68.7536 711.625 68.9124 712.028 69.154C712.435 69.3956 712.773 69.7603 713.041 70.248C713.31 70.7357 713.444 71.389 713.444 72.2078V79H711.86V77.604H711.779C711.672 77.8277 711.493 78.0671 711.243 78.3221C710.992 78.5772 710.659 78.7942 710.242 78.9732C709.826 79.1521 709.319 79.2416 708.719 79.2416ZM708.961 77.8188C709.587 77.8188 710.115 77.6957 710.544 77.4496C710.979 77.2035 711.305 76.8858 711.524 76.4966C711.748 76.1073 711.86 75.6979 711.86 75.2683V73.8186C711.793 73.8991 711.645 73.973 711.417 74.0401C711.193 74.1027 710.934 74.1587 710.638 74.2079C710.348 74.2526 710.063 74.2929 709.786 74.3287C709.513 74.36 709.292 74.3869 709.122 74.4092C708.71 74.4629 708.325 74.5502 707.967 74.671C707.614 74.7873 707.327 74.9641 707.108 75.2012C706.893 75.4339 706.786 75.7516 706.786 76.1543C706.786 76.7046 706.99 77.1207 707.397 77.4026C707.808 77.68 708.33 77.8188 708.961 77.8188ZM723.637 70.9997L722.214 71.4024C722.125 71.1653 721.993 70.9348 721.818 70.7111C721.648 70.4829 721.416 70.295 721.12 70.1473C720.825 69.9997 720.447 69.9259 719.986 69.9259C719.355 69.9259 718.829 70.0713 718.409 70.3621C717.993 70.6485 717.785 71.0131 717.785 71.4561C717.785 71.8499 717.928 72.1608 718.214 72.389C718.501 72.6172 718.948 72.8074 719.557 72.9595L721.087 73.3354C722.009 73.5591 722.695 73.9014 723.147 74.3623C723.599 74.8186 723.825 75.407 723.825 76.1274C723.825 76.718 723.655 77.246 723.315 77.7114C722.98 78.1767 722.51 78.5436 721.906 78.8121C721.302 79.0805 720.599 79.2148 719.798 79.2148C718.747 79.2148 717.876 78.9866 717.187 78.5302C716.498 78.0738 716.062 77.4071 715.879 76.5301L717.382 76.1543C717.525 76.7091 717.796 77.1252 718.194 77.4026C718.597 77.68 719.123 77.8188 719.771 77.8188C720.51 77.8188 721.096 77.6621 721.53 77.3489C721.968 77.0312 722.188 76.6509 722.188 76.208C722.188 75.85 722.062 75.5502 721.812 75.3086C721.561 75.0625 721.176 74.879 720.657 74.7582L718.939 74.3555C717.995 74.1318 717.301 73.785 716.858 73.3152C716.42 72.8409 716.201 72.2481 716.201 71.5366C716.201 70.955 716.364 70.4404 716.691 69.993C717.022 69.5455 717.471 69.1943 718.04 68.9392C718.612 68.6842 719.261 68.5567 719.986 68.5567C721.006 68.5567 721.807 68.7804 722.389 69.2278C722.975 69.6753 723.391 70.2659 723.637 70.9997ZM733.512 70.9997L732.089 71.4024C731.999 71.1653 731.867 70.9348 731.693 70.7111C731.523 70.4829 731.29 70.295 730.995 70.1473C730.7 69.9997 730.321 69.9259 729.861 69.9259C729.23 69.9259 728.704 70.0713 728.283 70.3621C727.867 70.6485 727.659 71.0131 727.659 71.4561C727.659 71.8499 727.802 72.1608 728.089 72.389C728.375 72.6172 728.823 72.8074 729.431 72.9595L730.961 73.3354C731.883 73.5591 732.57 73.9014 733.022 74.3623C733.474 74.8186 733.7 75.407 733.7 76.1274C733.7 76.718 733.53 77.246 733.19 77.7114C732.854 78.1767 732.384 78.5436 731.78 78.8121C731.176 79.0805 730.474 79.2148 729.673 79.2148C728.621 79.2148 727.751 78.9866 727.062 78.5302C726.373 78.0738 725.937 77.4071 725.753 76.5301L727.256 76.1543C727.4 76.7091 727.67 77.1252 728.069 77.4026C728.471 77.68 728.997 77.8188 729.646 77.8188C730.384 77.8188 730.97 77.6621 731.404 77.3489C731.843 77.0312 732.062 76.6509 732.062 76.208C732.062 75.85 731.937 75.5502 731.686 75.3086C731.436 75.0625 731.051 74.879 730.532 74.7582L728.814 74.3555C727.869 74.1318 727.176 73.785 726.733 73.3152C726.294 72.8409 726.075 72.2481 726.075 71.5366C726.075 70.955 726.239 70.4404 726.565 69.993C726.896 69.5455 727.346 69.1943 727.914 68.9392C728.487 68.6842 729.136 68.5567 729.861 68.5567C730.881 68.5567 731.682 68.7804 732.263 69.2278C732.85 69.6753 733.266 70.2659 733.512 70.9997ZM741.614 65.2545H743.601L748.272 76.6643H748.433L753.105 65.2545H755.091V79H753.534V68.5567H753.4L749.105 79H747.601L743.306 68.5567H743.171V79H741.614V65.2545ZM761.248 79.2416C760.594 79.2416 760.002 79.1186 759.469 78.8725C758.937 78.6219 758.514 78.2617 758.201 77.7919C757.887 77.3176 757.731 76.7449 757.731 76.0737C757.731 75.4831 757.847 75.0043 758.08 74.6374C758.312 74.2661 758.623 73.9752 759.013 73.7649C759.402 73.5546 759.831 73.398 760.301 73.2951C760.776 73.1877 761.252 73.1027 761.731 73.0401C762.357 72.9595 762.865 72.8991 763.254 72.8588C763.648 72.8141 763.935 72.7403 764.114 72.6374C764.297 72.5344 764.389 72.3555 764.389 72.1004V72.0467C764.389 71.3845 764.207 70.87 763.845 70.5031C763.487 70.1362 762.943 69.9527 762.214 69.9527C761.458 69.9527 760.865 70.1183 760.436 70.4494C760.006 70.7805 759.704 71.1339 759.529 71.5098L758.026 70.9729C758.295 70.3464 758.652 69.8587 759.1 69.5097C759.552 69.1562 760.044 68.9102 760.576 68.7714C761.113 68.6283 761.641 68.5567 762.16 68.5567C762.492 68.5567 762.872 68.5969 763.301 68.6775C763.735 68.7536 764.154 68.9124 764.556 69.154C764.964 69.3956 765.301 69.7603 765.57 70.248C765.838 70.7357 765.973 71.389 765.973 72.2078V79H764.389V77.604H764.308C764.201 77.8277 764.022 78.0671 763.771 78.3221C763.521 78.5772 763.187 78.7942 762.771 78.9732C762.355 79.1521 761.847 79.2416 761.248 79.2416ZM761.489 77.8188C762.116 77.8188 762.644 77.6957 763.073 77.4496C763.507 77.2035 763.834 76.8858 764.053 76.4966C764.277 76.1073 764.389 75.6979 764.389 75.2683V73.8186C764.322 73.8991 764.174 73.973 763.946 74.0401C763.722 74.1027 763.462 74.1587 763.167 74.2079C762.876 74.2526 762.592 74.2929 762.315 74.3287C762.042 74.36 761.82 74.3869 761.65 74.4092C761.239 74.4629 760.854 74.5502 760.496 74.671C760.142 74.7873 759.856 74.9641 759.637 75.2012C759.422 75.4339 759.315 75.7516 759.315 76.1543C759.315 76.7046 759.518 77.1207 759.925 77.4026C760.337 77.68 760.858 77.8188 761.489 77.8188ZM770.448 72.7984V79H768.864V68.6909H770.394V70.3017H770.528C770.77 69.7782 771.137 69.3576 771.629 69.0399C772.121 68.7178 772.756 68.5567 773.535 68.5567C774.233 68.5567 774.844 68.6999 775.367 68.9862C775.891 69.2681 776.298 69.6977 776.589 70.2749C776.88 70.8476 777.025 71.5724 777.025 72.4494V79H775.441V72.5568C775.441 71.7469 775.231 71.1161 774.81 70.6641C774.39 70.2077 773.812 69.9795 773.079 69.9795C772.573 69.9795 772.121 70.0892 771.723 70.3084C771.329 70.5277 771.018 70.8476 770.79 71.2682C770.562 71.6888 770.448 72.1989 770.448 72.7984ZM782.953 79.2416C782.3 79.2416 781.707 79.1186 781.175 78.8725C780.642 78.6219 780.219 78.2617 779.906 77.7919C779.593 77.3176 779.436 76.7449 779.436 76.0737C779.436 75.4831 779.553 75.0043 779.785 74.6374C780.018 74.2661 780.329 73.9752 780.718 73.7649C781.107 73.5546 781.537 73.398 782.007 73.2951C782.481 73.1877 782.958 73.1027 783.436 73.0401C784.063 72.9595 784.571 72.8991 784.96 72.8588C785.354 72.8141 785.64 72.7403 785.819 72.6374C786.002 72.5344 786.094 72.3555 786.094 72.1004V72.0467C786.094 71.3845 785.913 70.87 785.551 70.5031C785.193 70.1362 784.649 69.9527 783.92 69.9527C783.163 69.9527 782.571 70.1183 782.141 70.4494C781.711 70.7805 781.409 71.1339 781.235 71.5098L779.732 70.9729C780 70.3464 780.358 69.8587 780.805 69.5097C781.257 69.1562 781.749 68.9102 782.282 68.7714C782.819 68.6283 783.347 68.5567 783.866 68.5567C784.197 68.5567 784.577 68.5969 785.007 68.6775C785.441 68.7536 785.859 68.9124 786.262 69.154C786.669 69.3956 787.007 69.7603 787.275 70.248C787.544 70.7357 787.678 71.389 787.678 72.2078V79H786.094V77.604H786.014C785.906 77.8277 785.727 78.0671 785.477 78.3221C785.226 78.5772 784.893 78.7942 784.477 78.9732C784.061 79.1521 783.553 79.2416 782.953 79.2416ZM783.195 77.8188C783.821 77.8188 784.349 77.6957 784.779 77.4496C785.213 77.2035 785.539 76.8858 785.759 76.4966C785.982 76.1073 786.094 75.6979 786.094 75.2683V73.8186C786.027 73.8991 785.879 73.973 785.651 74.0401C785.427 74.1027 785.168 74.1587 784.873 74.2079C784.582 74.2526 784.298 74.2929 784.02 74.3287C783.747 74.36 783.526 74.3869 783.356 74.4092C782.944 74.4629 782.559 74.5502 782.201 74.671C781.848 74.7873 781.562 74.9641 781.342 75.2012C781.128 75.4339 781.02 75.7516 781.02 76.1543C781.02 76.7046 781.224 77.1207 781.631 77.4026C782.043 77.68 782.564 77.8188 783.195 77.8188ZM794.73 83.0807C793.965 83.0807 793.307 82.9822 792.757 82.7854C792.207 82.593 791.748 82.3379 791.381 82.0202C791.019 81.707 790.73 81.3714 790.515 81.0135L791.777 80.1276C791.92 80.3155 792.102 80.5303 792.321 80.7719C792.54 81.018 792.84 81.2305 793.22 81.4095C793.605 81.5929 794.108 81.6847 794.73 81.6847C795.563 81.6847 796.249 81.4833 796.791 81.0806C797.332 80.6779 797.603 80.047 797.603 79.1879V77.0939H797.469C797.352 77.2818 797.187 77.5145 796.972 77.7919C796.762 78.0648 796.457 78.3087 796.059 78.5235C795.666 78.7338 795.133 78.8389 794.462 78.8389C793.63 78.8389 792.882 78.642 792.22 78.2483C791.562 77.8545 791.041 77.2818 790.656 76.5301C790.276 75.7784 790.086 74.8656 790.086 73.7918C790.086 72.7358 790.272 71.8163 790.643 71.0333C791.014 70.2458 791.531 69.6373 792.193 69.2077C792.856 68.7737 793.621 68.5567 794.489 68.5567C795.16 68.5567 795.692 68.6685 796.086 68.8923C796.484 69.1115 796.789 69.3621 796.999 69.644C797.214 69.9214 797.379 70.1496 797.496 70.3286H797.657V68.6909H799.187V79.2953C799.187 80.1812 798.986 80.9016 798.583 81.4565C798.185 82.0158 797.648 82.4252 796.972 82.6847C796.301 82.9487 795.554 83.0807 794.73 83.0807ZM794.677 77.4161C795.312 77.4161 795.849 77.2706 796.287 76.9798C796.726 76.689 797.059 76.2706 797.288 75.7247C797.516 75.1788 797.63 74.5256 797.63 73.7649C797.63 73.0222 797.518 72.3667 797.294 71.7984C797.07 71.2301 796.739 70.7849 796.301 70.4628C795.862 70.1406 795.321 69.9795 794.677 69.9795C794.006 69.9795 793.446 70.1496 792.999 70.4896C792.556 70.8297 792.222 71.2861 791.999 71.8588C791.779 72.4315 791.67 73.0669 791.67 73.7649C791.67 74.4808 791.782 75.114 792.005 75.6643C792.234 76.2102 792.569 76.6397 793.012 76.9529C793.46 77.2617 794.014 77.4161 794.677 77.4161ZM806.409 79.2148C805.415 79.2148 804.558 78.9955 803.838 78.557C803.122 78.1141 802.57 77.4966 802.18 76.7046C801.795 75.9082 801.603 74.982 801.603 73.926C801.603 72.87 801.795 71.9393 802.18 71.1339C802.57 70.3241 803.111 69.6932 803.805 69.2413C804.503 68.7849 805.317 68.5567 806.248 68.5567C806.784 68.5567 807.315 68.6462 807.838 68.8251C808.362 69.0041 808.838 69.295 809.268 69.6977C809.697 70.0959 810.04 70.6239 810.295 71.2816C810.55 71.9393 810.677 72.7492 810.677 73.7112V74.3824H802.731V73.0132H809.066C809.066 72.4315 808.95 71.9125 808.717 71.4561C808.489 70.9997 808.163 70.6395 807.738 70.3755C807.317 70.1115 806.82 69.9795 806.248 69.9795C805.617 69.9795 805.071 70.1362 804.61 70.4494C804.154 70.7581 803.802 71.1608 803.556 71.6575C803.31 72.1541 803.187 72.6866 803.187 73.2548V74.1676C803.187 74.9462 803.321 75.6061 803.59 76.1475C803.863 76.6845 804.241 77.0939 804.724 77.3758C805.207 77.6532 805.769 77.7919 806.409 77.7919C806.825 77.7919 807.201 77.7337 807.536 77.6174C807.876 77.4966 808.169 77.3176 808.415 77.0805C808.662 76.8388 808.852 76.5391 808.986 76.1811L810.516 76.6107C810.355 77.1297 810.084 77.5861 809.704 77.9798C809.324 78.3691 808.854 78.6734 808.295 78.8926C807.735 79.1074 807.107 79.2148 806.409 79.2148ZM813.087 79V68.6909H814.617V70.3017H814.751C814.966 69.7513 815.313 69.324 815.792 69.0198C816.27 68.711 816.845 68.5567 817.516 68.5567C818.197 68.5567 818.763 68.711 819.214 69.0198C819.671 69.324 820.027 69.7513 820.282 70.3017H820.389C820.653 69.7692 821.049 69.3464 821.577 69.0332C822.105 68.7155 822.738 68.5567 823.476 68.5567C824.398 68.5567 825.152 68.8453 825.738 69.4225C826.324 69.9952 826.617 70.8879 826.617 72.1004V79H825.033V72.1004C825.033 71.3398 824.825 70.7961 824.409 70.4695C823.993 70.1429 823.503 69.9795 822.939 69.9795C822.215 69.9795 821.653 70.1988 821.255 70.6373C820.857 71.0713 820.657 71.6217 820.657 72.2884V79H819.047V71.9393C819.047 71.3532 818.857 70.8811 818.476 70.5232C818.096 70.1608 817.606 69.9795 817.006 69.9795C816.595 69.9795 816.21 70.0892 815.852 70.3084C815.498 70.5277 815.212 70.8319 814.993 71.2212C814.778 71.606 814.671 72.0512 814.671 72.5568V79H813.087ZM833.836 79.2148C832.842 79.2148 831.986 78.9955 831.265 78.557C830.549 78.1141 829.997 77.4966 829.607 76.7046C829.223 75.9082 829.03 74.982 829.03 73.926C829.03 72.87 829.223 71.9393 829.607 71.1339C829.997 70.3241 830.538 69.6932 831.232 69.2413C831.93 68.7849 832.744 68.5567 833.675 68.5567C834.212 68.5567 834.742 68.6462 835.265 68.8251C835.789 69.0041 836.265 69.295 836.695 69.6977C837.124 70.0959 837.467 70.6239 837.722 71.2816C837.977 71.9393 838.104 72.7492 838.104 73.7112V74.3824H830.158V73.0132H836.494C836.494 72.4315 836.377 71.9125 836.145 71.4561C835.916 70.9997 835.59 70.6395 835.165 70.3755C834.744 70.1115 834.247 69.9795 833.675 69.9795C833.044 69.9795 832.498 70.1362 832.037 70.4494C831.581 70.7581 831.229 71.1608 830.983 71.6575C830.737 72.1541 830.614 72.6866 830.614 73.2548V74.1676C830.614 74.9462 830.748 75.6061 831.017 76.1475C831.29 76.6845 831.668 77.0939 832.151 77.3758C832.634 77.6532 833.196 77.7919 833.836 77.7919C834.252 77.7919 834.628 77.7337 834.963 77.6174C835.303 77.4966 835.596 77.3176 835.843 77.0805C836.089 76.8388 836.279 76.5391 836.413 76.1811L837.943 76.6107C837.782 77.1297 837.512 77.5861 837.131 77.9798C836.751 78.3691 836.281 78.6734 835.722 78.8926C835.162 79.1074 834.534 79.2148 833.836 79.2148ZM842.098 72.7984V79H840.514V68.6909H842.044V70.3017H842.178C842.42 69.7782 842.787 69.3576 843.279 69.0399C843.771 68.7178 844.407 68.5567 845.185 68.5567C845.883 68.5567 846.494 68.6999 847.017 68.9862C847.541 69.2681 847.948 69.6977 848.239 70.2749C848.53 70.8476 848.675 71.5724 848.675 72.4494V79H847.091V72.5568C847.091 71.7469 846.881 71.1161 846.46 70.6641C846.04 70.2077 845.463 69.9795 844.729 69.9795C844.223 69.9795 843.771 70.0892 843.373 70.3084C842.979 70.5277 842.668 70.8476 842.44 71.2682C842.212 71.6888 842.098 72.1989 842.098 72.7984ZM856.053 68.6909V70.0332H850.711V68.6909H856.053ZM852.268 66.221H853.852V76.0469C853.852 76.4943 853.916 76.8299 854.046 77.0536C854.18 77.2729 854.35 77.4205 854.556 77.4966C854.767 77.5682 854.988 77.604 855.221 77.604C855.395 77.604 855.538 77.595 855.65 77.5771C855.762 77.5548 855.852 77.5369 855.919 77.5234L856.241 78.9463C856.134 78.9866 855.984 79.0268 855.791 79.0671C855.599 79.1119 855.355 79.1342 855.06 79.1342C854.612 79.1342 854.174 79.038 853.744 78.8456C853.319 78.6532 852.966 78.3602 852.684 77.9664C852.406 77.5727 852.268 77.076 852.268 76.4764V66.221Z" fill="black"/>
<g clip-path="url(#clip2_2_1246)">
<path d="M685.661 61.0737H662.621V84.1137H685.661V61.0737Z" fill="#EBEBEB"/>
<path d="M666.461 78.8338V66.3538H681.821V78.8338H666.461ZM674.141 73.3738L680.285 69.4738V67.9138L674.141 71.8138L667.997 67.9138V69.4738L674.141 73.3738Z" fill="black"/>
</g>
<path d="M371.438 72.5938C371.438 61.8242 380.168 53.0938 390.938 53.0938H613.148C623.917 53.0938 632.647 61.8242 632.647 72.5938C632.647 83.3633 623.917 92.0938 613.147 92.0938H390.937C380.168 92.0938 371.438 83.3633 371.438 72.5938Z" stroke="#BBBBBB"/>
<path d="M422.602 66.8483H424.589L429.26 78.2581H429.421L434.092 66.8483H436.079V80.5938H434.522V70.1504H434.388L430.092 80.5938H428.589L424.293 70.1504H424.159V80.5938H422.602V66.8483ZM445.698 76.3788V70.2847H447.282V80.5938H445.698V78.8487H445.591C445.349 79.3722 444.974 79.8174 444.464 80.1843C443.953 80.5468 443.309 80.728 442.531 80.728C441.886 80.728 441.314 80.587 440.812 80.3051C440.311 80.0188 439.917 79.5892 439.631 79.0165C439.345 78.4393 439.202 77.7122 439.202 76.8352V70.2847H440.786V76.7278C440.786 77.4795 440.996 78.0791 441.416 78.5266C441.841 78.974 442.383 79.1977 443.041 79.1977C443.434 79.1977 443.835 79.0971 444.242 78.8957C444.654 78.6944 444.998 78.3856 445.276 77.9695C445.558 77.5534 445.698 77.0232 445.698 76.3788ZM451.767 66.8483V80.5938H450.184V66.8483H451.767ZM459.152 70.2847V71.627H453.809V70.2847H459.152ZM455.367 67.8148H456.951V77.6406C456.951 78.0881 457.015 78.4237 457.145 78.6474C457.279 78.8666 457.449 79.0143 457.655 79.0903C457.866 79.1619 458.087 79.1977 458.32 79.1977C458.494 79.1977 458.637 79.1888 458.749 79.1709C458.861 79.1485 458.951 79.1306 459.018 79.1172L459.34 80.5401C459.232 80.5803 459.083 80.6206 458.89 80.6609C458.698 80.7056 458.454 80.728 458.159 80.728C457.711 80.728 457.273 80.6318 456.843 80.4394C456.418 80.247 456.065 79.9539 455.783 79.5602C455.505 79.1664 455.367 78.6697 455.367 78.0702V67.8148ZM461.535 80.5938V70.2847H463.119V80.5938H461.535ZM462.34 68.5665C462.031 68.5665 461.765 68.4613 461.541 68.251C461.322 68.0407 461.212 67.7879 461.212 67.4926C461.212 67.1973 461.322 66.9445 461.541 66.7342C461.765 66.5239 462.031 66.4188 462.34 66.4188C462.649 66.4188 462.913 66.5239 463.132 66.7342C463.356 66.9445 463.468 67.1973 463.468 67.4926C463.468 67.7879 463.356 68.0407 463.132 68.251C462.913 68.4613 462.649 68.5665 462.34 68.5665ZM466.02 84.4597V70.2847H467.55V71.9223H467.738C467.854 71.7433 468.015 71.5151 468.221 71.2377C468.431 70.9558 468.731 70.7053 469.12 70.486C469.514 70.2623 470.047 70.1504 470.718 70.1504C471.586 70.1504 472.351 70.3674 473.013 70.8015C473.675 71.2355 474.192 71.8507 474.564 72.6472C474.935 73.4436 475.121 74.3832 475.121 75.4661C475.121 76.5578 474.935 77.5042 474.564 78.3051C474.192 79.1015 473.678 79.719 473.02 80.1575C472.362 80.5915 471.604 80.8085 470.745 80.8085C470.082 80.8085 469.552 80.6989 469.154 80.4797C468.756 80.2559 468.449 80.0031 468.234 79.7212C468.02 79.4349 467.854 79.1977 467.738 79.0098H467.604V84.4597H466.02ZM467.577 75.4392C467.577 76.2178 467.691 76.9046 467.919 77.4997C468.147 78.0903 468.481 78.5534 468.919 78.889C469.358 79.2201 469.894 79.3857 470.53 79.3857C471.192 79.3857 471.745 79.2112 472.188 78.8621C472.635 78.5087 472.971 78.0344 473.194 77.4393C473.423 76.8397 473.537 76.173 473.537 75.4392C473.537 74.7143 473.425 74.0611 473.201 73.4794C472.982 72.8933 472.649 72.4301 472.201 72.0901C471.758 71.7456 471.201 71.5733 470.53 71.5733C469.886 71.5733 469.344 71.7366 468.906 72.0632C468.467 72.3854 468.136 72.8373 467.912 73.419C467.689 73.9962 467.577 74.6696 467.577 75.4392ZM479.121 66.8483V80.5938H477.537V66.8483H479.121ZM486.344 80.8085C485.351 80.8085 484.494 80.5893 483.774 80.1508C483.058 79.7078 482.505 79.0903 482.116 78.2984C481.731 77.5019 481.539 76.5757 481.539 75.5197C481.539 74.4638 481.731 73.5331 482.116 72.7277C482.505 71.9178 483.047 71.2869 483.74 70.835C484.438 70.3786 485.252 70.1504 486.183 70.1504C486.72 70.1504 487.25 70.2399 487.774 70.4189C488.297 70.5979 488.774 70.8887 489.203 71.2914C489.633 71.6896 489.975 72.2176 490.23 72.8754C490.485 73.5331 490.613 74.343 490.613 75.305V75.9761H482.666V74.607H489.002C489.002 74.0253 488.886 73.5062 488.653 73.0499C488.425 72.5935 488.098 72.2333 487.673 71.9693C487.252 71.7053 486.756 71.5733 486.183 71.5733C485.552 71.5733 485.006 71.7299 484.545 72.0431C484.089 72.3518 483.738 72.7545 483.492 73.2512C483.246 73.7479 483.123 74.2803 483.123 74.8486V75.7614C483.123 76.5399 483.257 77.1999 483.525 77.7413C483.798 78.2782 484.176 78.6876 484.66 78.9695C485.143 79.2469 485.704 79.3857 486.344 79.3857C486.76 79.3857 487.136 79.3275 487.472 79.2112C487.812 79.0903 488.105 78.9114 488.351 78.6742C488.597 78.4326 488.787 78.1328 488.921 77.7749L490.452 78.2044C490.291 78.7234 490.02 79.1798 489.64 79.5736C489.259 79.9629 488.789 80.2671 488.23 80.4864C487.671 80.7011 487.042 80.8085 486.344 80.8085ZM499.922 66.8483V80.5938H498.338V66.8483H499.922ZM505.857 80.8354C505.203 80.8354 504.61 80.7123 504.078 80.4662C503.546 80.2157 503.123 79.8555 502.81 79.3857C502.496 78.9114 502.34 78.3386 502.34 77.6675C502.34 77.0768 502.456 76.5981 502.689 76.2312C502.921 75.8598 503.232 75.569 503.622 75.3587C504.011 75.1484 504.44 74.9918 504.91 74.8888C505.385 74.7815 505.861 74.6964 506.34 74.6338C506.966 74.5533 507.474 74.4929 507.863 74.4526C508.257 74.4078 508.544 74.334 508.722 74.2311C508.906 74.1282 508.998 73.9492 508.998 73.6942V73.6405C508.998 72.9783 508.816 72.4637 508.454 72.0968C508.096 71.7299 507.552 71.5464 506.823 71.5464C506.067 71.5464 505.474 71.712 505.045 72.0431C504.615 72.3742 504.313 72.7277 504.138 73.1036L502.635 72.5666C502.903 71.9402 503.261 71.4525 503.709 71.1035C504.161 70.75 504.653 70.5039 505.185 70.3652C505.722 70.222 506.25 70.1504 506.769 70.1504C507.101 70.1504 507.481 70.1907 507.91 70.2712C508.344 70.3473 508.763 70.5061 509.165 70.7478C509.573 70.9894 509.91 71.354 510.179 71.8418C510.447 72.3295 510.582 72.9827 510.582 73.8016V80.5938H508.998V79.1977H508.917C508.81 79.4214 508.631 79.6608 508.38 79.9159C508.13 80.1709 507.796 80.3879 507.38 80.5669C506.964 80.7459 506.456 80.8354 505.857 80.8354ZM506.098 79.4125C506.725 79.4125 507.253 79.2895 507.682 79.0434C508.116 78.7973 508.443 78.4796 508.662 78.0903C508.886 77.701 508.998 77.2916 508.998 76.8621V75.4124C508.931 75.4929 508.783 75.5667 508.555 75.6338C508.331 75.6965 508.071 75.7524 507.776 75.8016C507.485 75.8464 507.201 75.8866 506.924 75.9224C506.651 75.9538 506.429 75.9806 506.259 76.003C505.848 76.0567 505.463 76.1439 505.105 76.2647C504.751 76.3811 504.465 76.5578 504.246 76.795C504.031 77.0276 503.924 77.3453 503.924 77.748C503.924 78.2984 504.127 78.7145 504.534 78.9964C504.946 79.2738 505.467 79.4125 506.098 79.4125ZM515.057 74.3922V80.5938H513.473V70.2847H515.003V71.8955H515.137C515.379 71.3719 515.746 70.9513 516.238 70.6337C516.73 70.3115 517.365 70.1504 518.144 70.1504C518.842 70.1504 519.453 70.2936 519.976 70.58C520.5 70.8619 520.907 71.2914 521.198 71.8686C521.489 72.4413 521.634 73.1662 521.634 74.0432V80.5938H520.05V74.1506C520.05 73.3407 519.84 72.7098 519.419 72.2579C518.999 71.8015 518.421 71.5733 517.688 71.5733C517.182 71.5733 516.73 71.6829 516.332 71.9022C515.938 72.1214 515.627 72.4413 515.399 72.8619C515.171 73.2825 515.057 73.7926 515.057 74.3922ZM528.69 84.6744C527.925 84.6744 527.267 84.576 526.716 84.3791C526.166 84.1867 525.707 83.9317 525.341 83.614C524.978 83.3008 524.69 82.9652 524.475 82.6072L525.737 81.7213C525.88 81.9092 526.061 82.124 526.28 82.3656C526.499 82.6117 526.799 82.8243 527.18 83.0032C527.564 83.1867 528.068 83.2784 528.69 83.2784C529.522 83.2784 530.209 83.0771 530.75 82.6744C531.292 82.2717 531.562 81.6408 531.562 80.7817V78.6876H531.428C531.312 78.8756 531.146 79.1082 530.931 79.3857C530.721 79.6586 530.417 79.9025 530.019 80.1172C529.625 80.3275 529.092 80.4327 528.421 80.4327C527.589 80.4327 526.842 80.2358 526.179 79.842C525.522 79.4483 525 78.8756 524.616 78.1239C524.235 77.3722 524.045 76.4594 524.045 75.3855C524.045 74.3295 524.231 73.41 524.602 72.627C524.974 71.8395 525.49 71.231 526.153 70.8015C526.815 70.3674 527.58 70.1504 528.448 70.1504C529.119 70.1504 529.652 70.2623 530.045 70.486C530.444 70.7053 530.748 70.9558 530.958 71.2377C531.173 71.5151 531.339 71.7433 531.455 71.9223H531.616V70.2847H533.146V80.8891C533.146 81.775 532.945 82.4954 532.542 83.0502C532.144 83.6095 531.607 84.0189 530.931 84.2784C530.26 84.5424 529.513 84.6744 528.69 84.6744ZM528.636 79.0098C529.271 79.0098 529.808 78.8644 530.247 78.5735C530.685 78.2827 531.019 77.8643 531.247 77.3185C531.475 76.7726 531.589 76.1193 531.589 75.3587C531.589 74.6159 531.477 73.9604 531.253 73.3922C531.03 72.8239 530.699 72.3787 530.26 72.0565C529.822 71.7344 529.28 71.5733 528.636 71.5733C527.965 71.5733 527.405 71.7433 526.958 72.0834C526.515 72.4234 526.182 72.8798 525.958 73.4526C525.739 74.0253 525.629 74.6607 525.629 75.3587C525.629 76.0746 525.741 76.7077 525.965 77.2581C526.193 77.8039 526.528 78.2335 526.971 78.5467C527.419 78.8554 527.974 79.0098 528.636 79.0098ZM537.2 80.7011C536.869 80.7011 536.585 80.5826 536.348 80.3454C536.11 80.1083 535.992 79.8241 535.992 79.493C535.992 79.1619 536.11 78.8778 536.348 78.6407C536.585 78.4035 536.869 78.2849 537.2 78.2849C537.531 78.2849 537.815 78.4035 538.052 78.6407C538.29 78.8778 538.408 79.1619 538.408 79.493C538.408 79.7123 538.352 79.9136 538.24 80.0971C538.133 80.2805 537.988 80.4282 537.804 80.5401C537.625 80.6474 537.424 80.7011 537.2 80.7011ZM553.868 72.5935L552.446 72.9962C552.356 72.759 552.224 72.5286 552.05 72.3049C551.88 72.0767 551.647 71.8887 551.352 71.7411C551.056 71.5934 550.678 71.5196 550.217 71.5196C549.586 71.5196 549.061 71.665 548.64 71.9559C548.224 72.2422 548.016 72.6069 548.016 73.0499C548.016 73.4436 548.159 73.7546 548.445 73.9828C548.732 74.211 549.179 74.4011 549.788 74.5533L551.318 74.9291C552.24 75.1528 552.927 75.4951 553.378 75.956C553.83 76.4124 554.056 77.0008 554.056 77.7212C554.056 78.3118 553.886 78.8398 553.546 79.3051C553.211 79.7705 552.741 80.1374 552.137 80.4058C551.533 80.6743 550.83 80.8085 550.029 80.8085C548.978 80.8085 548.108 80.5803 547.418 80.1239C546.729 79.6675 546.293 79.0009 546.11 78.1239L547.613 77.748C547.756 78.3028 548.027 78.719 548.425 78.9964C548.828 79.2738 549.354 79.4125 550.002 79.4125C550.741 79.4125 551.327 79.2559 551.761 78.9427C552.199 78.625 552.419 78.2447 552.419 77.8017C552.419 77.4437 552.293 77.144 552.043 76.9023C551.792 76.6563 551.407 76.4728 550.888 76.352L549.17 75.9493C548.226 75.7256 547.533 75.3788 547.09 74.909C546.651 74.4347 546.432 73.8418 546.432 73.1304C546.432 72.5487 546.595 72.0342 546.922 71.5867C547.253 71.1393 547.703 70.788 548.271 70.533C548.844 70.2779 549.492 70.1504 550.217 70.1504C551.237 70.1504 552.038 70.3741 552.62 70.8216C553.206 71.269 553.622 71.8597 553.868 72.5935ZM562.938 76.3788V70.2847H564.521V80.5938H562.938V78.8487H562.83C562.589 79.3722 562.213 79.8174 561.703 80.1843C561.192 80.5468 560.548 80.728 559.77 80.728C559.125 80.728 558.553 80.587 558.051 80.3051C557.55 80.0188 557.157 79.5892 556.87 79.0165C556.584 78.4393 556.441 77.7122 556.441 76.8352V70.2847H558.025V76.7278C558.025 77.4795 558.235 78.0791 558.655 78.5266C559.081 78.974 559.622 79.1977 560.28 79.1977C560.673 79.1977 561.074 79.0971 561.481 78.8957C561.893 78.6944 562.237 78.3856 562.515 77.9695C562.797 77.5534 562.938 77.0232 562.938 76.3788ZM567.423 84.4597V70.2847H568.953V71.9223H569.141C569.257 71.7433 569.418 71.5151 569.624 71.2377C569.834 70.9558 570.134 70.7053 570.523 70.486C570.917 70.2623 571.45 70.1504 572.121 70.1504C572.989 70.1504 573.754 70.3674 574.416 70.8015C575.078 71.2355 575.595 71.8507 575.966 72.6472C576.338 73.4436 576.524 74.3832 576.524 75.4661C576.524 76.5578 576.338 77.5042 575.966 78.3051C575.595 79.1015 575.081 79.719 574.423 80.1575C573.765 80.5915 573.007 80.8085 572.148 80.8085C571.485 80.8085 570.955 80.6989 570.557 80.4797C570.159 80.2559 569.852 80.0031 569.637 79.7212C569.423 79.4349 569.257 79.1977 569.141 79.0098H569.007V84.4597H567.423ZM568.98 75.4392C568.98 76.2178 569.094 76.9046 569.322 77.4997C569.55 78.0903 569.884 78.5534 570.322 78.889C570.76 79.2201 571.297 79.3857 571.933 79.3857C572.595 79.3857 573.148 79.2112 573.591 78.8621C574.038 78.5087 574.374 78.0344 574.597 77.4393C574.826 76.8397 574.94 76.173 574.94 75.4392C574.94 74.7143 574.828 74.0611 574.604 73.4794C574.385 72.8933 574.051 72.4301 573.604 72.0901C573.161 71.7456 572.604 71.5733 571.933 71.5733C571.288 71.5733 570.747 71.7366 570.309 72.0632C569.87 72.3854 569.539 72.8373 569.315 73.419C569.092 73.9962 568.98 74.6696 568.98 75.4392ZM578.94 84.4597V70.2847H580.47V71.9223H580.658C580.774 71.7433 580.935 71.5151 581.141 71.2377C581.351 70.9558 581.651 70.7053 582.041 70.486C582.434 70.2623 582.967 70.1504 583.638 70.1504C584.506 70.1504 585.271 70.3674 585.933 70.8015C586.596 71.2355 587.112 71.8507 587.484 72.6472C587.855 73.4436 588.041 74.3832 588.041 75.4661C588.041 76.5578 587.855 77.5042 587.484 78.3051C587.112 79.1015 586.598 79.719 585.94 80.1575C585.282 80.5915 584.524 80.8085 583.665 80.8085C583.003 80.8085 582.472 80.6989 582.074 80.4797C581.676 80.2559 581.369 80.0031 581.155 79.7212C580.94 79.4349 580.774 79.1977 580.658 79.0098H580.524V84.4597H578.94ZM580.497 75.4392C580.497 76.2178 580.611 76.9046 580.839 77.4997C581.067 78.0903 581.401 78.5534 581.839 78.889C582.278 79.2201 582.815 79.3857 583.45 79.3857C584.112 79.3857 584.665 79.2112 585.108 78.8621C585.555 78.5087 585.891 78.0344 586.115 77.4393C586.343 76.8397 586.457 76.173 586.457 75.4392C586.457 74.7143 586.345 74.0611 586.121 73.4794C585.902 72.8933 585.569 72.4301 585.121 72.0901C584.678 71.7456 584.121 71.5733 583.45 71.5733C582.806 71.5733 582.264 71.7366 581.826 72.0632C581.387 72.3854 581.056 72.8373 580.832 73.419C580.609 73.9962 580.497 74.6696 580.497 75.4392ZM594.645 80.8085C593.714 80.8085 592.898 80.587 592.195 80.1441C591.497 79.7011 590.951 79.0814 590.558 78.2849C590.168 77.4885 589.974 76.5578 589.974 75.4929C589.974 74.419 590.168 73.4816 590.558 72.6807C590.951 71.8798 591.497 71.2578 592.195 70.8149C592.898 70.3719 593.714 70.1504 594.645 70.1504C595.576 70.1504 596.39 70.3719 597.088 70.8149C597.791 71.2578 598.336 71.8798 598.726 72.6807C599.119 73.4816 599.316 74.419 599.316 75.4929C599.316 76.5578 599.119 77.4885 598.726 78.2849C598.336 79.0814 597.791 79.7011 597.088 80.1441C596.39 80.587 595.576 80.8085 594.645 80.8085ZM594.645 79.3857C595.352 79.3857 595.934 79.2044 596.39 78.842C596.846 78.4796 597.184 78.0031 597.403 77.4124C597.623 76.8218 597.732 76.182 597.732 75.4929C597.732 74.8038 597.623 74.1618 597.403 73.5667C597.184 72.9716 596.846 72.4906 596.39 72.1237C595.934 71.7567 595.352 71.5733 594.645 71.5733C593.938 71.5733 593.356 71.7567 592.9 72.1237C592.444 72.4906 592.106 72.9716 591.887 73.5667C591.667 74.1618 591.558 74.8038 591.558 75.4929C591.558 76.182 591.667 76.8218 591.887 77.4124C592.106 78.0031 592.444 78.4796 592.9 78.842C593.356 79.2044 593.938 79.3857 594.645 79.3857ZM601.734 80.5938V70.2847H603.264V71.8418H603.372C603.56 71.3317 603.9 70.9178 604.392 70.6001C604.884 70.2824 605.439 70.1236 606.056 70.1236C606.173 70.1236 606.318 70.1258 606.493 70.1303C606.667 70.1348 606.799 70.1415 606.889 70.1504V71.7612C606.835 71.7478 606.712 71.7277 606.52 71.7008C606.332 71.6695 606.133 71.6538 605.922 71.6538C605.421 71.6538 604.974 71.759 604.58 71.9693C604.191 72.1751 603.882 72.4615 603.654 72.8284C603.43 73.1908 603.318 73.6047 603.318 74.07V80.5938H601.734ZM613.896 70.2847V71.627H608.553V70.2847H613.896ZM610.11 67.8148H611.694V77.6406C611.694 78.0881 611.759 78.4237 611.889 78.6474C612.023 78.8666 612.193 79.0143 612.399 79.0903C612.609 79.1619 612.831 79.1977 613.063 79.1977C613.238 79.1977 613.381 79.1888 613.493 79.1709C613.605 79.1485 613.694 79.1306 613.761 79.1172L614.084 80.5401C613.976 80.5803 613.826 80.6206 613.634 80.6609C613.442 80.7056 613.198 80.728 612.902 80.728C612.455 80.728 612.016 80.6318 611.587 80.4394C611.162 80.247 610.808 79.9539 610.526 79.5602C610.249 79.1664 610.11 78.6697 610.11 78.0702V67.8148Z" fill="black"/>
<g clip-path="url(#clip3_2_1246)">
<path d="M411.457 61.0737H388.417V84.1137H411.457V61.0737Z" fill="#EBEBEB"/>
<path d="M396.204 76.3271H397.698V68.8604H396.204V76.3271ZM399.191 72.5937H400.684V68.8604H399.191V72.5937ZM402.177 74.8337H403.671V68.8604H402.177V74.8337ZM393.218 79.3137V65.8737H406.658V79.3137H393.218Z" fill="black"/>
</g>
<g opacity="0.5">
<path d="M207.438 72.5938C207.438 61.8242 216.168 53.0938 226.938 53.0938H338.938C349.707 53.0938 358.438 61.8242 358.438 72.5938C358.438 83.3633 349.707 92.0938 338.938 92.0938H226.937C216.168 92.0938 207.438 83.3633 207.438 72.5938Z" stroke="#BBBBBB"/>
<rect width="110" height="10" transform="translate(227.938 67.5938)" fill="#EEEEEE"/>
</g>
<g opacity="0.5">
<path d="M43.4375 72.5938C43.4375 61.8242 52.1679 53.0938 62.9375 53.0938H174.938C185.707 53.0938 194.438 61.8242 194.438 72.5938C194.438 83.3633 185.707 92.0938 174.938 92.0938H62.9375C52.1679 92.0938 43.4375 83.3633 43.4375 72.5938Z" stroke="#BBBBBB"/>
<rect width="110" height="10" transform="translate(63.9375 67.5938)" fill="#EEEEEE"/>
</g>
<g opacity="0.5">
<path d="M-120.562 72.5938C-120.562 61.8242 -111.832 53.0938 -101.062 53.0938H10.9375C21.7071 53.0938 30.4375 61.8242 30.4375 72.5938C30.4375 83.3633 21.7071 92.0938 10.9375 92.0938H-101.063C-111.832 92.0938 -120.562 83.3633 -120.562 72.5938Z" stroke="#BBBBBB"/>
<rect width="110" height="10" transform="translate(-100.062 67.5938)" fill="#EEEEEE"/>
</g>
<g opacity="0.5">
<path d="M75.8281 20.5938C75.8281 9.8242 84.5586 1.09375 95.3281 1.09375H207.328C218.098 1.09375 226.828 9.8242 226.828 20.5938C226.828 31.3633 218.098 40.0938 207.328 40.0938H95.3281C84.5586 40.0938 75.8281 31.3633 75.8281 20.5938Z" stroke="#BBBBBB"/>
<rect width="110" height="10" transform="translate(96.3281 15.5938)" fill="#EEEEEE"/>
</g>
<g opacity="0.5">
<path d="M239.828 20.5938C239.828 9.8242 248.559 1.09375 259.328 1.09375H371.328C382.098 1.09375 390.828 9.8242 390.828 20.5938C390.828 31.3633 382.098 40.0938 371.328 40.0938H259.328C248.559 40.0938 239.828 31.3633 239.828 20.5938Z" stroke="#BBBBBB"/>
<rect width="110" height="10" transform="translate(260.328 15.5938)" fill="#EEEEEE"/>
</g>
<path d="M403.828 20.5938C403.828 9.8242 412.559 1.09375 423.328 1.09375H570.878C581.648 1.09375 590.378 9.8242 590.378 20.5938C590.378 31.3633 581.648 40.0938 570.878 40.0938H423.328C412.559 40.0938 403.828 31.3633 403.828 20.5938Z" stroke="#BBBBBB"/>
<path d="M465.053 19.1438H463.389C463.29 18.665 463.118 18.2444 462.872 17.882C462.631 17.5195 462.335 17.2153 461.986 16.9692C461.642 16.7186 461.259 16.5307 460.838 16.4054C460.418 16.2801 459.979 16.2175 459.523 16.2175C458.691 16.2175 457.937 16.4278 457.261 16.8484C456.59 17.269 456.055 17.8887 455.657 18.7075C455.263 19.5263 455.066 20.5308 455.066 21.721C455.066 22.9112 455.263 23.9157 455.657 24.7346C456.055 25.5534 456.59 26.1731 457.261 26.5937C457.937 27.0143 458.691 27.2246 459.523 27.2246C459.979 27.2246 460.418 27.1619 460.838 27.0366C461.259 26.9114 461.642 26.7257 461.986 26.4796C462.335 26.229 462.631 25.9225 462.872 25.5601C463.118 25.1932 463.29 24.7726 463.389 24.2983H465.053C464.928 25.0008 464.7 25.6294 464.369 26.1843C464.038 26.7391 463.626 27.2112 463.134 27.6004C462.642 27.9852 462.089 28.2783 461.476 28.4797C460.868 28.681 460.217 28.7817 459.523 28.7817C458.351 28.7817 457.308 28.4953 456.395 27.9226C455.483 27.3499 454.764 26.5355 454.241 25.4795C453.717 24.4236 453.456 23.1707 453.456 21.721C453.456 20.2713 453.717 19.0185 454.241 17.9625C454.764 16.9065 455.483 16.0922 456.395 15.5195C457.308 14.9467 458.351 14.6604 459.523 14.6604C460.217 14.6604 460.868 14.761 461.476 14.9624C462.089 15.1637 462.642 15.4591 463.134 15.8483C463.626 16.2331 464.038 16.7029 464.369 17.2578C464.7 17.8081 464.928 18.4368 465.053 19.1438ZM471.716 28.8085C470.786 28.8085 469.969 28.587 469.267 28.1441C468.569 27.7011 468.023 27.0814 467.629 26.2849C467.24 25.4885 467.045 24.5578 467.045 23.4929C467.045 22.419 467.24 21.4816 467.629 20.6807C468.023 19.8798 468.569 19.2578 469.267 18.8149C469.969 18.3719 470.786 18.1504 471.716 18.1504C472.647 18.1504 473.461 18.3719 474.159 18.8149C474.862 19.2578 475.408 19.8798 475.797 20.6807C476.191 21.4816 476.388 22.419 476.388 23.4929C476.388 24.5578 476.191 25.4885 475.797 26.2849C475.408 27.0814 474.862 27.7011 474.159 28.1441C473.461 28.587 472.647 28.8085 471.716 28.8085ZM471.716 27.3857C472.423 27.3857 473.005 27.2044 473.461 26.842C473.918 26.4796 474.256 26.0031 474.475 25.4124C474.694 24.8218 474.804 24.182 474.804 23.4929C474.804 22.8038 474.694 22.1618 474.475 21.5667C474.256 20.9716 473.918 20.4906 473.461 20.1237C473.005 19.7567 472.423 19.5733 471.716 19.5733C471.009 19.5733 470.428 19.7567 469.971 20.1237C469.515 20.4906 469.177 20.9716 468.958 21.5667C468.739 22.1618 468.629 22.8038 468.629 23.4929C468.629 24.182 468.739 24.8218 468.958 25.4124C469.177 26.0031 469.515 26.4796 469.971 26.842C470.428 27.2044 471.009 27.3857 471.716 27.3857ZM480.39 14.8483V28.5938H478.806V14.8483H480.39ZM484.875 14.8483V28.5938H483.291V14.8483H484.875ZM490.809 28.8354C490.156 28.8354 489.563 28.7123 489.031 28.4662C488.498 28.2157 488.075 27.8555 487.762 27.3857C487.449 26.9114 487.292 26.3386 487.292 25.6675C487.292 25.0768 487.409 24.5981 487.641 24.2312C487.874 23.8598 488.185 23.569 488.574 23.3587C488.964 23.1484 489.393 22.9918 489.863 22.8888C490.337 22.7815 490.814 22.6964 491.293 22.6338C491.919 22.5533 492.427 22.4929 492.816 22.4526C493.21 22.4078 493.496 22.334 493.675 22.2311C493.859 22.1282 493.95 21.9492 493.95 21.6942V21.6405C493.95 20.9783 493.769 20.4637 493.407 20.0968C493.049 19.7299 492.505 19.5464 491.776 19.5464C491.02 19.5464 490.427 19.712 489.997 20.0431C489.568 20.3742 489.266 20.7277 489.091 21.1036L487.588 20.5666C487.856 19.9402 488.214 19.4525 488.662 19.1035C489.114 18.75 489.606 18.5039 490.138 18.3652C490.675 18.222 491.203 18.1504 491.722 18.1504C492.053 18.1504 492.434 18.1907 492.863 18.2712C493.297 18.3473 493.715 18.5061 494.118 18.7478C494.525 18.9894 494.863 19.354 495.132 19.8418C495.4 20.3295 495.534 20.9827 495.534 21.8016V28.5938H493.95V27.1977H493.87C493.762 27.4214 493.584 27.6608 493.333 27.9159C493.082 28.1709 492.749 28.3879 492.333 28.5669C491.917 28.7459 491.409 28.8354 490.809 28.8354ZM491.051 27.4125C491.677 27.4125 492.205 27.2895 492.635 27.0434C493.069 26.7973 493.396 26.4796 493.615 26.0903C493.839 25.701 493.95 25.2916 493.95 24.8621V23.4124C493.883 23.4929 493.736 23.5667 493.507 23.6338C493.284 23.6965 493.024 23.7524 492.729 23.8016C492.438 23.8464 492.154 23.8866 491.877 23.9224C491.604 23.9538 491.382 23.9806 491.212 24.003C490.8 24.0567 490.416 24.1439 490.058 24.2647C489.704 24.3811 489.418 24.5578 489.199 24.795C488.984 25.0276 488.876 25.3453 488.876 25.748C488.876 26.2984 489.08 26.7145 489.487 26.9964C489.899 27.2738 490.42 27.4125 491.051 27.4125ZM498.64 28.5938V14.8483H500.224V19.9223H500.358C500.475 19.7433 500.636 19.5151 500.842 19.2377C501.052 18.9558 501.352 18.7053 501.741 18.486C502.135 18.2623 502.667 18.1504 503.338 18.1504C504.206 18.1504 504.971 18.3674 505.634 18.8015C506.296 19.2355 506.813 19.8507 507.184 20.6472C507.555 21.4436 507.741 22.3832 507.741 23.4661C507.741 24.5578 507.555 25.5042 507.184 26.3051C506.813 27.1015 506.298 27.719 505.64 28.1575C504.983 28.5915 504.224 28.8085 503.365 28.8085C502.703 28.8085 502.173 28.6989 501.775 28.4797C501.376 28.2559 501.07 28.0031 500.855 27.7212C500.64 27.4349 500.475 27.1977 500.358 27.0098H500.17V28.5938H498.64ZM500.197 23.4392C500.197 24.2178 500.311 24.9046 500.54 25.4997C500.768 26.0903 501.101 26.5534 501.54 26.889C501.978 27.2201 502.515 27.3857 503.15 27.3857C503.813 27.3857 504.365 27.2112 504.808 26.8621C505.256 26.5087 505.591 26.0344 505.815 25.4393C506.043 24.8397 506.157 24.173 506.157 23.4392C506.157 22.7143 506.045 22.0611 505.822 21.4794C505.602 20.8933 505.269 20.4301 504.822 20.0901C504.379 19.7456 503.822 19.5733 503.15 19.5733C502.506 19.5733 501.965 19.7366 501.526 20.0632C501.088 20.3854 500.757 20.8373 500.533 21.419C500.309 21.9962 500.197 22.6696 500.197 23.4392ZM515.694 28.5938V14.8483H517.278V19.9223H517.413C517.529 19.7433 517.69 19.5151 517.896 19.2377C518.106 18.9558 518.406 18.7053 518.795 18.486C519.189 18.2623 519.721 18.1504 520.393 18.1504C521.261 18.1504 522.026 18.3674 522.688 18.8015C523.35 19.2355 523.867 19.8507 524.238 20.6472C524.61 21.4436 524.795 22.3832 524.795 23.4661C524.795 24.5578 524.61 25.5042 524.238 26.3051C523.867 27.1015 523.352 27.719 522.695 28.1575C522.037 28.5915 521.279 28.8085 520.419 28.8085C519.757 28.8085 519.227 28.6989 518.829 28.4797C518.431 28.2559 518.124 28.0031 517.909 27.7212C517.695 27.4349 517.529 27.1977 517.413 27.0098H517.225V28.5938H515.694ZM517.252 23.4392C517.252 24.2178 517.366 24.9046 517.594 25.4997C517.822 26.0903 518.155 26.5534 518.594 26.889C519.032 27.2201 519.569 27.3857 520.205 27.3857C520.867 27.3857 521.42 27.2112 521.862 26.8621C522.31 26.5087 522.645 26.0344 522.869 25.4393C523.097 24.8397 523.212 24.173 523.212 23.4392C523.212 22.7143 523.1 22.0611 522.876 21.4794C522.657 20.8933 522.323 20.4301 521.876 20.0901C521.433 19.7456 520.876 19.5733 520.205 19.5733C519.56 19.5733 519.019 19.7366 518.58 20.0632C518.142 20.3854 517.811 20.8373 517.587 21.419C517.363 21.9962 517.252 22.6696 517.252 23.4392ZM531.406 28.8085C530.476 28.8085 529.659 28.587 528.957 28.1441C528.259 27.7011 527.713 27.0814 527.319 26.2849C526.93 25.4885 526.735 24.5578 526.735 23.4929C526.735 22.419 526.93 21.4816 527.319 20.6807C527.713 19.8798 528.259 19.2578 528.957 18.8149C529.659 18.3719 530.476 18.1504 531.406 18.1504C532.337 18.1504 533.151 18.3719 533.849 18.8149C534.552 19.2578 535.098 19.8798 535.487 20.6807C535.881 21.4816 536.078 22.419 536.078 23.4929C536.078 24.5578 535.881 25.4885 535.487 26.2849C535.098 27.0814 534.552 27.7011 533.849 28.1441C533.151 28.587 532.337 28.8085 531.406 28.8085ZM531.406 27.3857C532.113 27.3857 532.695 27.2044 533.151 26.842C533.608 26.4796 533.946 26.0031 534.165 25.4124C534.384 24.8218 534.494 24.182 534.494 23.4929C534.494 22.8038 534.384 22.1618 534.165 21.5667C533.946 20.9716 533.608 20.4906 533.151 20.1237C532.695 19.7567 532.113 19.5733 531.406 19.5733C530.699 19.5733 530.118 19.7567 529.661 20.1237C529.205 20.4906 528.867 20.9716 528.648 21.5667C528.429 22.1618 528.319 22.8038 528.319 23.4929C528.319 24.182 528.429 24.8218 528.648 25.4124C528.867 26.0031 529.205 26.4796 529.661 26.842C530.118 27.2044 530.699 27.3857 531.406 27.3857ZM541.529 28.8354C540.876 28.8354 540.283 28.7123 539.751 28.4662C539.218 28.2157 538.795 27.8555 538.482 27.3857C538.169 26.9114 538.012 26.3386 538.012 25.6675C538.012 25.0768 538.129 24.5981 538.361 24.2312C538.594 23.8598 538.905 23.569 539.294 23.3587C539.684 23.1484 540.113 22.9918 540.583 22.8888C541.057 22.7815 541.534 22.6964 542.013 22.6338C542.639 22.5533 543.147 22.4929 543.536 22.4526C543.93 22.4078 544.216 22.334 544.395 22.2311C544.579 22.1282 544.67 21.9492 544.67 21.6942V21.6405C544.67 20.9783 544.489 20.4637 544.127 20.0968C543.769 19.7299 543.225 19.5464 542.496 19.5464C541.74 19.5464 541.147 19.712 540.717 20.0431C540.288 20.3742 539.986 20.7277 539.811 21.1036L538.308 20.5666C538.576 19.9402 538.934 19.4525 539.382 19.1035C539.833 18.75 540.326 18.5039 540.858 18.3652C541.395 18.222 541.923 18.1504 542.442 18.1504C542.773 18.1504 543.153 18.1907 543.583 18.2712C544.017 18.3473 544.435 18.5061 544.838 18.7478C545.245 18.9894 545.583 19.354 545.852 19.8418C546.12 20.3295 546.254 20.9827 546.254 21.8016V28.5938H544.67V27.1977H544.59C544.482 27.4214 544.303 27.6608 544.053 27.9159C543.802 28.1709 543.469 28.3879 543.053 28.5669C542.637 28.7459 542.129 28.8354 541.529 28.8354ZM541.771 27.4125C542.397 27.4125 542.925 27.2895 543.355 27.0434C543.789 26.7973 544.116 26.4796 544.335 26.0903C544.558 25.701 544.67 25.2916 544.67 24.8621V23.4124C544.603 23.4929 544.456 23.5667 544.227 23.6338C544.004 23.6965 543.744 23.7524 543.449 23.8016C543.158 23.8464 542.874 23.8866 542.596 23.9224C542.323 23.9538 542.102 23.9806 541.932 24.003C541.52 24.0567 541.136 24.1439 540.778 24.2647C540.424 24.3811 540.138 24.5578 539.918 24.795C539.704 25.0276 539.596 25.3453 539.596 25.748C539.596 26.2984 539.8 26.7145 540.207 26.9964C540.619 27.2738 541.14 27.4125 541.771 27.4125ZM549.145 28.5938V18.2847H550.676V19.8418H550.783C550.971 19.3317 551.311 18.9178 551.803 18.6001C552.295 18.2824 552.85 18.1236 553.468 18.1236C553.584 18.1236 553.729 18.1258 553.904 18.1303C554.078 18.1348 554.21 18.1415 554.3 18.1504V19.7612C554.246 19.7478 554.123 19.7277 553.931 19.7008C553.743 19.6695 553.544 19.6538 553.333 19.6538C552.832 19.6538 552.385 19.759 551.991 19.9693C551.602 20.1751 551.293 20.4615 551.065 20.8284C550.841 21.1908 550.729 21.6047 550.729 22.07V28.5938H549.145ZM559.756 28.8085C558.897 28.8085 558.139 28.5915 557.481 28.1575C556.823 27.719 556.309 27.1015 555.938 26.3051C555.566 25.5042 555.38 24.5578 555.38 23.4661C555.38 22.3832 555.566 21.4436 555.938 20.6472C556.309 19.8507 556.826 19.2355 557.488 18.8015C558.15 18.3674 558.915 18.1504 559.783 18.1504C560.454 18.1504 560.985 18.2623 561.374 18.486C561.768 18.7053 562.067 18.9558 562.273 19.2377C562.484 19.5151 562.647 19.7433 562.763 19.9223H562.897V14.8483H564.481V28.5938H562.951V27.0098H562.763C562.647 27.1977 562.481 27.4349 562.267 27.7212C562.052 28.0031 561.745 28.2559 561.347 28.4797C560.949 28.6989 560.419 28.8085 559.756 28.8085ZM559.971 27.3857C560.607 27.3857 561.144 27.2201 561.582 26.889C562.02 26.5534 562.354 26.0903 562.582 25.4997C562.81 24.9046 562.924 24.2178 562.924 23.4392C562.924 22.6696 562.812 21.9962 562.589 21.419C562.365 20.8373 562.034 20.3854 561.595 20.0632C561.157 19.7366 560.616 19.5733 559.971 19.5733C559.3 19.5733 558.741 19.7456 558.293 20.0901C557.85 20.4301 557.517 20.8933 557.293 21.4794C557.074 22.0611 556.964 22.7143 556.964 23.4392C556.964 24.173 557.076 24.8397 557.3 25.4393C557.528 26.0344 557.864 26.5087 558.307 26.8621C558.754 27.2112 559.309 27.3857 559.971 27.3857Z" fill="black"/>
<g clip-path="url(#clip4_2_1246)">
<path d="M443.848 9.07373H420.808V32.1137H443.848V9.07373Z" fill="#EBEBEB"/>
<path d="M425.608 27.3137V25.6337H427.918L427.582 25.3398C426.896 24.6538 426.396 23.9082 426.081 23.1033C425.766 22.2982 425.608 21.4758 425.608 20.6358C425.608 19.0817 426.074 17.6992 427.005 16.4882C427.936 15.2772 429.15 14.4757 430.648 14.0837V15.8477C429.64 16.2117 428.828 16.8312 428.212 17.7062C427.596 18.5812 427.288 19.5577 427.288 20.6358C427.288 21.2657 427.407 21.8782 427.645 22.4732C427.883 23.0682 428.254 23.6177 428.758 24.1217L428.968 24.3317V22.2737H430.648V27.3137H425.608ZM434.008 27.1037V25.3398C435.016 24.9757 435.828 24.3562 436.444 23.4812C437.06 22.6063 437.368 21.6298 437.368 20.5518C437.368 19.9217 437.249 19.3092 437.011 18.7142C436.773 18.1192 436.402 17.5697 435.898 17.0657L435.688 16.8557V18.9137H434.008V13.8737H439.048V15.5537H436.738L437.074 15.8477C437.76 16.5337 438.261 17.2792 438.576 18.0842C438.891 18.8892 439.048 19.7118 439.048 20.5518C439.048 22.1057 438.583 23.4882 437.652 24.6993C436.721 25.9102 435.506 26.7117 434.008 27.1037Z" fill="black"/>
</g>
<path d="M603.378 20.5938C603.378 9.8242 612.109 1.09375 622.878 1.09375H815.378C826.148 1.09375 834.878 9.8242 834.878 20.5938C834.878 31.3633 826.148 40.0938 815.378 40.0938H622.878C612.109 40.0938 603.378 31.3633 603.378 20.5938Z" stroke="#BBBBBB"/>
<path d="M654.106 28.5938H652.361L657.409 14.8483H659.127L664.174 28.5938H662.429L658.321 17.0229H658.214L654.106 28.5938ZM654.751 23.2244H661.785V24.701H654.751V23.2244ZM667.684 14.8483V28.5938H666.1V14.8483H667.684ZM672.169 14.8483V28.5938H670.585V14.8483H672.169ZM680.601 28.5938V14.8483H682.185V19.9223H682.319C682.435 19.7433 682.596 19.5151 682.802 19.2377C683.012 18.9558 683.312 18.7053 683.701 18.486C684.095 18.2623 684.628 18.1504 685.299 18.1504C686.167 18.1504 686.932 18.3674 687.594 18.8015C688.256 19.2355 688.773 19.8507 689.145 20.6472C689.516 21.4436 689.702 22.3832 689.702 23.4661C689.702 24.5578 689.516 25.5042 689.145 26.3051C688.773 27.1015 688.259 27.719 687.601 28.1575C686.943 28.5915 686.185 28.8085 685.326 28.8085C684.663 28.8085 684.133 28.6989 683.735 28.4797C683.337 28.2559 683.03 28.0031 682.816 27.7212C682.601 27.4349 682.435 27.1977 682.319 27.0098H682.131V28.5938H680.601ZM682.158 23.4392C682.158 24.2178 682.272 24.9046 682.5 25.4997C682.728 26.0903 683.062 26.5534 683.5 26.889C683.939 27.2201 684.476 27.3857 685.111 27.3857C685.773 27.3857 686.326 27.2112 686.769 26.8621C687.216 26.5087 687.552 26.0344 687.775 25.4393C688.004 24.8397 688.118 24.173 688.118 23.4392C688.118 22.7143 688.006 22.0611 687.782 21.4794C687.563 20.8933 687.23 20.4301 686.782 20.0901C686.339 19.7456 685.782 19.5733 685.111 19.5733C684.467 19.5733 683.925 19.7366 683.487 20.0632C683.048 20.3854 682.717 20.8373 682.493 21.419C682.27 21.9962 682.158 22.6696 682.158 23.4392ZM692.125 28.5938V18.2847H693.655V19.8418H693.762C693.95 19.3317 694.29 18.9178 694.782 18.6001C695.275 18.2824 695.829 18.1236 696.447 18.1236C696.563 18.1236 696.709 18.1258 696.883 18.1303C697.058 18.1348 697.19 18.1415 697.279 18.1504V19.7612C697.225 19.7478 697.102 19.7277 696.91 19.7008C696.722 19.6695 696.523 19.6538 696.313 19.6538C695.811 19.6538 695.364 19.759 694.97 19.9693C694.581 20.1751 694.272 20.4615 694.044 20.8284C693.82 21.1908 693.709 21.6047 693.709 22.07V28.5938H692.125ZM703.031 28.8085C702.1 28.8085 701.284 28.587 700.581 28.1441C699.883 27.7011 699.337 27.0814 698.944 26.2849C698.554 25.4885 698.36 24.5578 698.36 23.4929C698.36 22.419 698.554 21.4816 698.944 20.6807C699.337 19.8798 699.883 19.2578 700.581 18.8149C701.284 18.3719 702.1 18.1504 703.031 18.1504C703.962 18.1504 704.776 18.3719 705.474 18.8149C706.177 19.2578 706.722 19.8798 707.112 20.6807C707.505 21.4816 707.702 22.419 707.702 23.4929C707.702 24.5578 707.505 25.4885 707.112 26.2849C706.722 27.0814 706.177 27.7011 705.474 28.1441C704.776 28.587 703.962 28.8085 703.031 28.8085ZM703.031 27.3857C703.738 27.3857 704.32 27.2044 704.776 26.842C705.232 26.4796 705.57 26.0031 705.789 25.4124C706.009 24.8218 706.118 24.182 706.118 23.4929C706.118 22.8038 706.009 22.1618 705.789 21.5667C705.57 20.9716 705.232 20.4906 704.776 20.1237C704.32 19.7567 703.738 19.5733 703.031 19.5733C702.324 19.5733 701.742 19.7567 701.286 20.1237C700.83 20.4906 700.492 20.9716 700.273 21.5667C700.053 22.1618 699.944 22.8038 699.944 23.4929C699.944 24.182 700.053 24.8218 700.273 25.4124C700.492 26.0031 700.83 26.4796 701.286 26.842C701.742 27.2044 702.324 27.3857 703.031 27.3857ZM712.105 28.5938L708.964 18.2847H710.629L712.857 26.1776H712.964L715.166 18.2847H716.857L719.032 26.1507H719.139L721.367 18.2847H723.032L719.891 28.5938H718.334L716.078 20.674H715.917L713.662 28.5938H712.105ZM732.428 20.5935L731.005 20.9962C730.916 20.759 730.784 20.5286 730.609 20.3049C730.439 20.0767 730.206 19.8887 729.911 19.7411C729.616 19.5934 729.238 19.5196 728.777 19.5196C728.146 19.5196 727.62 19.665 727.2 19.9559C726.784 20.2422 726.575 20.6069 726.575 21.0499C726.575 21.4436 726.719 21.7546 727.005 21.9828C727.291 22.211 727.739 22.4011 728.347 22.5533L729.878 22.9291C730.799 23.1528 731.486 23.4951 731.938 23.956C732.39 24.4124 732.616 25.0008 732.616 25.7212C732.616 26.3118 732.446 26.8398 732.106 27.3051C731.77 27.7705 731.3 28.1374 730.696 28.4058C730.092 28.6743 729.39 28.8085 728.589 28.8085C727.537 28.8085 726.667 28.5803 725.978 28.1239C725.289 27.6675 724.853 27.0009 724.669 26.1239L726.173 25.748C726.316 26.3028 726.587 26.719 726.985 26.9964C727.388 27.2738 727.913 27.4125 728.562 27.4125C729.3 27.4125 729.887 27.2559 730.321 26.9427C730.759 26.625 730.978 26.2447 730.978 25.8017C730.978 25.4437 730.853 25.144 730.602 24.9023C730.352 24.6563 729.967 24.4728 729.448 24.352L727.73 23.9493C726.786 23.7256 726.092 23.3788 725.649 22.909C725.211 22.4347 724.992 21.8418 724.992 21.1304C724.992 20.5487 725.155 20.0342 725.481 19.5867C725.813 19.1393 726.262 18.788 726.83 18.533C727.403 18.2779 728.052 18.1504 728.777 18.1504C729.797 18.1504 730.598 18.3741 731.18 18.8216C731.766 19.269 732.182 19.8597 732.428 20.5935ZM739.323 28.8085C738.329 28.8085 737.472 28.5893 736.752 28.1508C736.036 27.7078 735.483 27.0903 735.094 26.2984C734.709 25.5019 734.517 24.5757 734.517 23.5197C734.517 22.4638 734.709 21.5331 735.094 20.7277C735.483 19.9178 736.025 19.2869 736.718 18.835C737.416 18.3786 738.231 18.1504 739.161 18.1504C739.698 18.1504 740.229 18.2399 740.752 18.4189C741.276 18.5979 741.752 18.8887 742.182 19.2914C742.611 19.6896 742.954 20.2176 743.209 20.8754C743.464 21.5331 743.591 22.343 743.591 23.305V23.9761H735.645V22.607H741.98C741.98 22.0253 741.864 21.5062 741.631 21.0499C741.403 20.5935 741.077 20.2333 740.651 19.9693C740.231 19.7053 739.734 19.5733 739.161 19.5733C738.531 19.5733 737.985 19.7299 737.524 20.0431C737.067 20.3518 736.716 20.7545 736.47 21.2512C736.224 21.7479 736.101 22.2803 736.101 22.8486V23.7614C736.101 24.5399 736.235 25.1999 736.504 25.7413C736.777 26.2782 737.155 26.6876 737.638 26.9695C738.121 27.2469 738.683 27.3857 739.323 27.3857C739.739 27.3857 740.115 27.3275 740.45 27.2112C740.79 27.0903 741.083 26.9114 741.329 26.6742C741.575 26.4326 741.766 26.1328 741.9 25.7749L743.43 26.2044C743.269 26.7234 742.998 27.1798 742.618 27.5736C742.238 27.9629 741.768 28.2671 741.209 28.4864C740.649 28.7011 740.021 28.8085 739.323 28.8085ZM746.001 28.5938V18.2847H747.531V19.8418H747.638C747.826 19.3317 748.166 18.9178 748.658 18.6001C749.151 18.2824 749.705 18.1236 750.323 18.1236C750.439 18.1236 750.585 18.1258 750.759 18.1303C750.934 18.1348 751.066 18.1415 751.155 18.1504V19.7612C751.101 19.7478 750.978 19.7277 750.786 19.7008C750.598 19.6695 750.399 19.6538 750.189 19.6538C749.688 19.6538 749.24 19.759 748.846 19.9693C748.457 20.1751 748.148 20.4615 747.92 20.8284C747.696 21.1908 747.585 21.6047 747.585 22.07V28.5938H746.001ZM765.651 20.5935L764.228 20.9962C764.138 20.759 764.006 20.5286 763.832 20.3049C763.662 20.0767 763.429 19.8887 763.134 19.7411C762.838 19.5934 762.46 19.5196 762 19.5196C761.369 19.5196 760.843 19.665 760.422 19.9559C760.006 20.2422 759.798 20.6069 759.798 21.0499C759.798 21.4436 759.941 21.7546 760.228 21.9828C760.514 22.211 760.961 22.4011 761.57 22.5533L763.1 22.9291C764.022 23.1528 764.709 23.4951 765.161 23.956C765.613 24.4124 765.839 25.0008 765.839 25.7212C765.839 26.3118 765.669 26.8398 765.329 27.3051C764.993 27.7705 764.523 28.1374 763.919 28.4058C763.315 28.6743 762.613 28.8085 761.812 28.8085C760.76 28.8085 759.89 28.5803 759.201 28.1239C758.512 27.6675 758.075 27.0009 757.892 26.1239L759.395 25.748C759.539 26.3028 759.809 26.719 760.208 26.9964C760.61 27.2738 761.136 27.4125 761.785 27.4125C762.523 27.4125 763.109 27.2559 763.543 26.9427C763.982 26.625 764.201 26.2447 764.201 25.8017C764.201 25.4437 764.076 25.144 763.825 24.9023C763.575 24.6563 763.19 24.4728 762.671 24.352L760.953 23.9493C760.008 23.7256 759.315 23.3788 758.872 22.909C758.433 22.4347 758.214 21.8418 758.214 21.1304C758.214 20.5487 758.377 20.0342 758.704 19.5867C759.035 19.1393 759.485 18.788 760.053 18.533C760.626 18.2779 761.275 18.1504 762 18.1504C763.02 18.1504 763.821 18.3741 764.402 18.8216C764.988 19.269 765.405 19.8597 765.651 20.5935ZM774.72 24.3788V18.2847H776.304V28.5938H774.72V26.8487H774.612C774.371 27.3722 773.995 27.8174 773.485 28.1843C772.975 28.5468 772.33 28.728 771.552 28.728C770.908 28.728 770.335 28.587 769.834 28.3051C769.333 28.0188 768.939 27.5892 768.652 27.0165C768.366 26.4393 768.223 25.7122 768.223 24.8352V18.2847H769.807V24.7278C769.807 25.4795 770.017 26.0791 770.438 26.5266C770.863 26.974 771.404 27.1977 772.062 27.1977C772.456 27.1977 772.856 27.0971 773.263 26.8957C773.675 26.6944 774.02 26.3856 774.297 25.9695C774.579 25.5534 774.72 25.0232 774.72 24.3788ZM779.205 32.4597V18.2847H780.735V19.9223H780.923C781.039 19.7433 781.2 19.5151 781.406 19.2377C781.617 18.9558 781.916 18.7053 782.306 18.486C782.699 18.2623 783.232 18.1504 783.903 18.1504C784.771 18.1504 785.536 18.3674 786.198 18.8015C786.861 19.2355 787.377 19.8507 787.749 20.6472C788.12 21.4436 788.306 22.3832 788.306 23.4661C788.306 24.5578 788.12 25.5042 787.749 26.3051C787.377 27.1015 786.863 27.719 786.205 28.1575C785.547 28.5915 784.789 28.8085 783.93 28.8085C783.268 28.8085 782.737 28.6989 782.339 28.4797C781.941 28.2559 781.634 28.0031 781.42 27.7212C781.205 27.4349 781.039 27.1977 780.923 27.0098H780.789V32.4597H779.205ZM780.762 23.4392C780.762 24.2178 780.876 24.9046 781.104 25.4997C781.332 26.0903 781.666 26.5534 782.104 26.889C782.543 27.2201 783.08 27.3857 783.715 27.3857C784.377 27.3857 784.93 27.2112 785.373 26.8621C785.82 26.5087 786.156 26.0344 786.38 25.4393C786.608 24.8397 786.722 24.173 786.722 23.4392C786.722 22.7143 786.61 22.0611 786.386 21.4794C786.167 20.8933 785.834 20.4301 785.386 20.0901C784.943 19.7456 784.386 19.5733 783.715 19.5733C783.071 19.5733 782.529 19.7366 782.091 20.0632C781.652 20.3854 781.321 20.8373 781.098 21.419C780.874 21.9962 780.762 22.6696 780.762 23.4392ZM790.722 32.4597V18.2847H792.252V19.9223H792.44C792.557 19.7433 792.718 19.5151 792.923 19.2377C793.134 18.9558 793.434 18.7053 793.823 18.486C794.217 18.2623 794.749 18.1504 795.42 18.1504C796.288 18.1504 797.053 18.3674 797.716 18.8015C798.378 19.2355 798.895 19.8507 799.266 20.6472C799.637 21.4436 799.823 22.3832 799.823 23.4661C799.823 24.5578 799.637 25.5042 799.266 26.3051C798.895 27.1015 798.38 27.719 797.722 28.1575C797.065 28.5915 796.306 28.8085 795.447 28.8085C794.785 28.8085 794.255 28.6989 793.856 28.4797C793.458 28.2559 793.152 28.0031 792.937 27.7212C792.722 27.4349 792.557 27.1977 792.44 27.0098H792.306V32.4597H790.722ZM792.279 23.4392C792.279 24.2178 792.393 24.9046 792.621 25.4997C792.85 26.0903 793.183 26.5534 793.621 26.889C794.06 27.2201 794.597 27.3857 795.232 27.3857C795.894 27.3857 796.447 27.2112 796.89 26.8621C797.337 26.5087 797.673 26.0344 797.897 25.4393C798.125 24.8397 798.239 24.173 798.239 23.4392C798.239 22.7143 798.127 22.0611 797.903 21.4794C797.684 20.8933 797.351 20.4301 796.903 20.0901C796.46 19.7456 795.903 19.5733 795.232 19.5733C794.588 19.5733 794.047 19.7366 793.608 20.0632C793.17 20.3854 792.838 20.8373 792.615 21.419C792.391 21.9962 792.279 22.6696 792.279 23.4392ZM806.427 28.8085C805.497 28.8085 804.68 28.587 803.978 28.1441C803.28 27.7011 802.734 27.0814 802.34 26.2849C801.951 25.4885 801.756 24.5578 801.756 23.4929C801.756 22.419 801.951 21.4816 802.34 20.6807C802.734 19.8798 803.28 19.2578 803.978 18.8149C804.68 18.3719 805.497 18.1504 806.427 18.1504C807.358 18.1504 808.172 18.3719 808.87 18.8149C809.573 19.2578 810.119 19.8798 810.508 20.6807C810.902 21.4816 811.099 22.419 811.099 23.4929C811.099 24.5578 810.902 25.4885 810.508 26.2849C810.119 27.0814 809.573 27.7011 808.87 28.1441C808.172 28.587 807.358 28.8085 806.427 28.8085ZM806.427 27.3857C807.134 27.3857 807.716 27.2044 808.172 26.842C808.629 26.4796 808.967 26.0031 809.186 25.4124C809.405 24.8218 809.515 24.182 809.515 23.4929C809.515 22.8038 809.405 22.1618 809.186 21.5667C808.967 20.9716 808.629 20.4906 808.172 20.1237C807.716 19.7567 807.134 19.5733 806.427 19.5733C805.72 19.5733 805.139 19.7567 804.682 20.1237C804.226 20.4906 803.888 20.9716 803.669 21.5667C803.45 22.1618 803.34 22.8038 803.34 23.4929C803.34 24.182 803.45 24.8218 803.669 25.4124C803.888 26.0031 804.226 26.4796 804.682 26.842C805.139 27.2044 805.72 27.3857 806.427 27.3857ZM813.516 28.5938V18.2847H815.047V19.8418H815.154C815.342 19.3317 815.682 18.9178 816.174 18.6001C816.666 18.2824 817.221 18.1236 817.839 18.1236C817.955 18.1236 818.101 18.1258 818.275 18.1303C818.45 18.1348 818.582 18.1415 818.671 18.1504V19.7612C818.617 19.7478 818.494 19.7277 818.302 19.7008C818.114 19.6695 817.915 19.6538 817.705 19.6538C817.203 19.6538 816.756 19.759 816.362 19.9693C815.973 20.1751 815.664 20.4615 815.436 20.8284C815.212 21.1908 815.1 21.6047 815.1 22.07V28.5938H813.516ZM825.678 18.2847V19.627H820.335V18.2847H825.678ZM821.893 15.8148H823.477V25.6406C823.477 26.0881 823.541 26.4237 823.671 26.6474C823.805 26.8666 823.975 27.0143 824.181 27.0903C824.392 27.1619 824.613 27.1977 824.846 27.1977C825.02 27.1977 825.163 27.1888 825.275 27.1709C825.387 27.1485 825.477 27.1306 825.544 27.1172L825.866 28.5401C825.759 28.5803 825.609 28.6206 825.416 28.6609C825.224 28.7056 824.98 28.728 824.685 28.728C824.237 28.728 823.799 28.6318 823.369 28.4394C822.944 28.247 822.591 27.9539 822.309 27.5602C822.031 27.1664 821.893 26.6697 821.893 26.0702V15.8148Z" fill="black"/>
<g clip-path="url(#clip5_2_1246)">
<path d="M643.878 8.59375H619.878V32.5938H643.878V8.59375Z" fill="#EBEBEB"/>
<mask id="mask0_2_1246" style="mask-type:luminance" maskUnits="userSpaceOnUse" x="624" y="13" width="15" height="15">
<path d="M638.878 13.5938H624.878V27.5938H638.878V13.5938Z" fill="white"/>
</mask>
<g mask="url(#mask0_2_1246)">
<path fill-rule="evenodd" clip-rule="evenodd" d="M626.565 16.0331C629.818 12.2456 635.855 12.9913 638.109 17.4192H632.691C631.714 17.4192 631.082 17.3981 630.399 17.7562C629.594 18.1775 628.992 18.9611 628.777 19.8837L626.565 16.0331ZM629.548 20.5957C629.548 21.8807 630.589 22.9213 631.874 22.9255C633.159 22.9255 634.199 21.8807 634.199 20.5957C634.199 19.3108 633.159 18.2702 631.874 18.266C630.589 18.2702 629.548 19.3108 629.548 20.5957ZM632.775 23.6418C631.469 24.0294 629.94 23.5996 629.106 22.1546C628.465 21.0508 626.78 18.1101 626.013 16.7746C623.326 20.8949 625.643 26.5066 630.521 27.463L632.775 23.6418ZM634.035 18.266C635.122 19.2771 635.358 20.9159 634.625 22.1841C634.069 23.1404 632.299 26.1316 631.44 27.5767C636.466 27.8885 640.131 22.9592 638.475 18.2618L634.035 18.266Z" fill="black"/>
</g>
</g>
<path d="M847.878 20.5938C847.878 9.8242 856.609 1.09375 867.378 1.09375H1001.67C1012.44 1.09375 1021.17 9.8242 1021.17 20.5938C1021.17 31.3633 1012.44 40.0938 1001.67 40.0938H867.378C856.609 40.0938 847.878 31.3633 847.878 20.5938Z" stroke="#BBBBBB"/>
<path d="M898.043 28.5938V14.8483H899.707V27.1172H906.097V28.5938H898.043ZM912.781 28.8085C911.788 28.8085 910.931 28.5893 910.211 28.1508C909.495 27.7078 908.942 27.0903 908.553 26.2984C908.168 25.5019 907.976 24.5757 907.976 23.5197C907.976 22.4638 908.168 21.5331 908.553 20.7277C908.942 19.9178 909.484 19.2869 910.177 18.835C910.875 18.3786 911.69 18.1504 912.62 18.1504C913.157 18.1504 913.688 18.2399 914.211 18.4189C914.735 18.5979 915.211 18.8887 915.641 19.2914C916.07 19.6896 916.412 20.2176 916.667 20.8754C916.923 21.5331 917.05 22.343 917.05 23.305V23.9761H909.103V22.607H915.439C915.439 22.0253 915.323 21.5062 915.09 21.0499C914.862 20.5935 914.535 20.2333 914.11 19.9693C913.69 19.7053 913.193 19.5733 912.62 19.5733C911.989 19.5733 911.444 19.7299 910.983 20.0431C910.526 20.3518 910.175 20.7545 909.929 21.2512C909.683 21.7479 909.56 22.2803 909.56 22.8486V23.7614C909.56 24.5399 909.694 25.1999 909.963 25.7413C910.235 26.2782 910.614 26.6876 911.097 26.9695C911.58 27.2469 912.142 27.3857 912.781 27.3857C913.198 27.3857 913.573 27.3275 913.909 27.2112C914.249 27.0903 914.542 26.9114 914.788 26.6742C915.034 26.4326 915.224 26.1328 915.359 25.7749L916.889 26.2044C916.728 26.7234 916.457 27.1798 916.077 27.5736C915.697 27.9629 915.227 28.2671 914.667 28.4864C914.108 28.7011 913.479 28.8085 912.781 28.8085ZM927.576 18.2847L923.763 28.5938H922.153L918.34 18.2847H920.059L922.904 26.4997H923.012L925.857 18.2847H927.576ZM933.619 28.8085C932.626 28.8085 931.769 28.5893 931.049 28.1508C930.333 27.7078 929.78 27.0903 929.391 26.2984C929.006 25.5019 928.814 24.5757 928.814 23.5197C928.814 22.4638 929.006 21.5331 929.391 20.7277C929.78 19.9178 930.322 19.2869 931.015 18.835C931.713 18.3786 932.528 18.1504 933.458 18.1504C933.995 18.1504 934.526 18.2399 935.049 18.4189C935.573 18.5979 936.049 18.8887 936.479 19.2914C936.908 19.6896 937.25 20.2176 937.505 20.8754C937.761 21.5331 937.888 22.343 937.888 23.305V23.9761H929.941V22.607H936.277C936.277 22.0253 936.161 21.5062 935.928 21.0499C935.7 20.5935 935.373 20.2333 934.948 19.9693C934.528 19.7053 934.031 19.5733 933.458 19.5733C932.827 19.5733 932.282 19.7299 931.821 20.0431C931.364 20.3518 931.013 20.7545 930.767 21.2512C930.521 21.7479 930.398 22.2803 930.398 22.8486V23.7614C930.398 24.5399 930.532 25.1999 930.801 25.7413C931.073 26.2782 931.452 26.6876 931.935 26.9695C932.418 27.2469 932.98 27.3857 933.619 27.3857C934.036 27.3857 934.411 27.3275 934.747 27.2112C935.087 27.0903 935.38 26.9114 935.626 26.6742C935.872 26.4326 936.062 26.1328 936.197 25.7749L937.727 26.2044C937.566 26.7234 937.295 27.1798 936.915 27.5736C936.535 27.9629 936.065 28.2671 935.505 28.4864C934.946 28.7011 934.317 28.8085 933.619 28.8085ZM940.298 28.5938V18.2847H941.828V19.8418H941.935C942.123 19.3317 942.463 18.9178 942.955 18.6001C943.448 18.2824 944.002 18.1236 944.62 18.1236C944.736 18.1236 944.882 18.1258 945.056 18.1303C945.231 18.1348 945.363 18.1415 945.452 18.1504V19.7612C945.398 19.7478 945.275 19.7277 945.083 19.7008C944.895 19.6695 944.696 19.6538 944.486 19.6538C943.984 19.6538 943.537 19.759 943.143 19.9693C942.754 20.1751 942.445 20.4615 942.217 20.8284C941.993 21.1908 941.881 21.6047 941.881 22.07V28.5938H940.298ZM950.363 28.8354C949.71 28.8354 949.117 28.7123 948.585 28.4662C948.052 28.2157 947.629 27.8555 947.316 27.3857C947.003 26.9114 946.846 26.3386 946.846 25.6675C946.846 25.0768 946.963 24.5981 947.195 24.2312C947.428 23.8598 947.739 23.569 948.128 23.3587C948.518 23.1484 948.947 22.9918 949.417 22.8888C949.891 22.7815 950.368 22.6964 950.847 22.6338C951.473 22.5533 951.981 22.4929 952.37 22.4526C952.764 22.4078 953.05 22.334 953.229 22.2311C953.413 22.1282 953.504 21.9492 953.504 21.6942V21.6405C953.504 20.9783 953.323 20.4637 952.961 20.0968C952.603 19.7299 952.059 19.5464 951.33 19.5464C950.574 19.5464 949.981 19.712 949.551 20.0431C949.122 20.3742 948.82 20.7277 948.645 21.1036L947.142 20.5666C947.41 19.9402 947.768 19.4525 948.216 19.1035C948.667 18.75 949.16 18.5039 949.692 18.3652C950.229 18.222 950.757 18.1504 951.276 18.1504C951.607 18.1504 951.988 18.1907 952.417 18.2712C952.851 18.3473 953.269 18.5061 953.672 18.7478C954.079 18.9894 954.417 19.354 954.686 19.8418C954.954 20.3295 955.088 20.9827 955.088 21.8016V28.5938H953.504V27.1977H953.424C953.316 27.4214 953.137 27.6608 952.887 27.9159C952.636 28.1709 952.303 28.3879 951.887 28.5669C951.471 28.7459 950.963 28.8354 950.363 28.8354ZM950.605 27.4125C951.231 27.4125 951.759 27.2895 952.189 27.0434C952.623 26.7973 952.95 26.4796 953.169 26.0903C953.392 25.701 953.504 25.2916 953.504 24.8621V23.4124C953.437 23.4929 953.29 23.5667 953.061 23.6338C952.838 23.6965 952.578 23.7524 952.283 23.8016C951.992 23.8464 951.708 23.8866 951.43 23.9224C951.158 23.9538 950.936 23.9806 950.766 24.003C950.354 24.0567 949.97 24.1439 949.612 24.2647C949.258 24.3811 948.972 24.5578 948.753 24.795C948.538 25.0276 948.43 25.3453 948.43 25.748C948.43 26.2984 948.634 26.7145 949.041 26.9964C949.453 27.2738 949.974 27.4125 950.605 27.4125ZM962.141 32.6744C961.375 32.6744 960.718 32.576 960.167 32.3791C959.617 32.1867 959.158 31.9317 958.791 31.614C958.429 31.3008 958.14 30.9652 957.926 30.6072L959.187 29.7213C959.331 29.9092 959.512 30.124 959.731 30.3656C959.95 30.6117 960.25 30.8243 960.63 31.0032C961.015 31.1867 961.519 31.2784 962.141 31.2784C962.973 31.2784 963.66 31.0771 964.201 30.6744C964.742 30.2717 965.013 29.6408 965.013 28.7817V26.6876H964.879C964.763 26.8756 964.597 27.1082 964.382 27.3857C964.172 27.6586 963.868 27.9025 963.469 28.1172C963.076 28.3275 962.543 28.4327 961.872 28.4327C961.04 28.4327 960.293 28.2358 959.63 27.842C958.973 27.4483 958.451 26.8756 958.067 26.1239C957.686 25.3722 957.496 24.4594 957.496 23.3855C957.496 22.3295 957.682 21.41 958.053 20.627C958.425 19.8395 958.941 19.231 959.604 18.8015C960.266 18.3674 961.031 18.1504 961.899 18.1504C962.57 18.1504 963.103 18.2623 963.496 18.486C963.895 18.7053 964.199 18.9558 964.409 19.2377C964.624 19.5151 964.789 19.7433 964.906 19.9223H965.067V18.2847H966.597V28.8891C966.597 29.775 966.396 30.4954 965.993 31.0502C965.595 31.6095 965.058 32.0189 964.382 32.2784C963.711 32.5424 962.964 32.6744 962.141 32.6744ZM962.087 27.0098C962.722 27.0098 963.259 26.8644 963.698 26.5735C964.136 26.2827 964.47 25.8643 964.698 25.3185C964.926 24.7726 965.04 24.1193 965.04 23.3587C965.04 22.6159 964.928 21.9604 964.704 21.3922C964.481 20.8239 964.15 20.3787 963.711 20.0565C963.273 19.7344 962.731 19.5733 962.087 19.5733C961.416 19.5733 960.856 19.7433 960.409 20.0834C959.966 20.4234 959.633 20.8798 959.409 21.4526C959.19 22.0253 959.08 22.6607 959.08 23.3587C959.08 24.0746 959.192 24.7077 959.416 25.2581C959.644 25.8039 959.979 26.2335 960.422 26.5467C960.87 26.8554 961.425 27.0098 962.087 27.0098ZM973.819 28.8085C972.826 28.8085 971.969 28.5893 971.248 28.1508C970.532 27.7078 969.98 27.0903 969.591 26.2984C969.206 25.5019 969.013 24.5757 969.013 23.5197C969.013 22.4638 969.206 21.5331 969.591 20.7277C969.98 19.9178 970.521 19.2869 971.215 18.835C971.913 18.3786 972.727 18.1504 973.658 18.1504C974.195 18.1504 974.725 18.2399 975.248 18.4189C975.772 18.5979 976.248 18.8887 976.678 19.2914C977.108 19.6896 977.45 20.2176 977.705 20.8754C977.96 21.5331 978.087 22.343 978.087 23.305V23.9761H970.141V22.607H976.477C976.477 22.0253 976.36 21.5062 976.128 21.0499C975.899 20.5935 975.573 20.2333 975.148 19.9693C974.727 19.7053 974.23 19.5733 973.658 19.5733C973.027 19.5733 972.481 19.7299 972.02 20.0431C971.564 20.3518 971.212 20.7545 970.966 21.2512C970.72 21.7479 970.597 22.2803 970.597 22.8486V23.7614C970.597 24.5399 970.731 25.1999 971 25.7413C971.273 26.2782 971.651 26.6876 972.134 26.9695C972.617 27.2469 973.179 27.3857 973.819 27.3857C974.235 27.3857 974.611 27.3275 974.946 27.2112C975.286 27.0903 975.58 26.9114 975.826 26.6742C976.072 26.4326 976.262 26.1328 976.396 25.7749L977.926 26.2044C977.765 26.7234 977.495 27.1798 977.114 27.5736C976.734 27.9629 976.264 28.2671 975.705 28.4864C975.146 28.7011 974.517 28.8085 973.819 28.8085ZM986.591 28.5938H984.846L989.893 14.8483H991.611L996.659 28.5938H994.914L990.806 17.0229H990.699L986.591 28.5938ZM987.235 23.2244H994.269V24.701H987.235V23.2244ZM1000.46 14.8483V28.5938H998.8V14.8483H1000.46Z" fill="black"/>
<g clip-path="url(#clip6_2_1246)">
<path d="M888.378 8.59375H864.378V32.5938H888.378V8.59375Z" fill="#EBEBEB"/>
<path d="M879.621 18.7755L878.863 17.1088L877.196 16.3512L878.863 15.5937L879.621 13.927L880.378 15.5937L882.045 16.3512L880.378 17.1088L879.621 18.7755ZM879.621 27.2604L878.863 25.5937L877.196 24.8361L878.863 24.0786L879.621 22.4119L880.378 24.0786L882.045 24.8361L880.378 25.5937L879.621 27.2604ZM873.56 25.4422L872.045 22.1089L868.712 20.5937L872.045 19.0786L873.56 15.7452L875.075 19.0786L878.409 20.5937L875.075 22.1089L873.56 25.4422Z" fill="black"/>
</g>
<g opacity="0.5">
<path d="M1034.17 20.5938C1034.17 9.8242 1042.9 1.09375 1053.67 1.09375H1165.67C1176.44 1.09375 1185.17 9.8242 1185.17 20.5938C1185.17 31.3633 1176.44 40.0938 1165.67 40.0938H1053.67C1042.9 40.0938 1034.17 31.3633 1034.17 20.5938Z" stroke="#BBBBBB"/>
<rect width="110" height="10" transform="translate(1054.67 15.5938)" fill="#EEEEEE"/>
</g>
<g opacity="0.5">
<path d="M1198.17 20.5938C1198.17 9.8242 1206.9 1.09375 1217.67 1.09375H1329.67C1340.44 1.09375 1349.17 9.8242 1349.17 20.5938C1349.17 31.3633 1340.44 40.0938 1329.67 40.0938H1217.67C1206.9 40.0938 1198.17 31.3633 1198.17 20.5938Z" stroke="#BBBBBB"/>
<rect width="110" height="10" transform="translate(1218.67 15.5938)" fill="#EEEEEE"/>
</g>
</g>
<defs>
<linearGradient id="paint0_linear_2_1246" x1="200" y1="47" x2="0" y2="47" gradientUnits="userSpaceOnUse">
<stop stop-color="white" stop-opacity="0"/>
<stop offset="0.75" stop-color="white"/>
<stop offset="1" stop-color="white"/>
</linearGradient>
<linearGradient id="paint1_linear_2_1246" x1="0" y1="0" x2="72.3728" y2="153.985" gradientUnits="userSpaceOnUse">
<stop stop-color="white" stop-opacity="0"/>
<stop offset="0.74" stop-color="white"/>
<stop offset="1" stop-color="white"/>
</linearGradient>
<clipPath id="clip0_2_1246">
<rect width="1425" height="92" fill="white" transform="translate(0 0.59375)"/>
</clipPath>
<clipPath id="clip1_2_1246">
<rect width="24" height="24" fill="white" transform="translate(895.812 60.5938)"/>
</clipPath>
<clipPath id="clip2_2_1246">
<rect width="24" height="23.04" fill="white" transform="translate(662.141 61.0737)"/>
</clipPath>
<clipPath id="clip3_2_1246">
<rect width="24" height="23.04" fill="white" transform="translate(387.938 61.0737)"/>
</clipPath>
<clipPath id="clip4_2_1246">
<rect width="24" height="23.04" fill="white" transform="translate(420.328 9.07373)"/>
</clipPath>
<clipPath id="clip5_2_1246">
<rect width="24" height="24" fill="white" transform="translate(619.878 8.59375)"/>
</clipPath>
<clipPath id="clip6_2_1246">
<rect width="24" height="24" fill="white" transform="translate(864.378 8.59375)"/>
</clipPath>
</defs>
</svg>
